%TF.GenerationSoftware,KiCad,Pcbnew,7.0.10-7.0.10~ubuntu20.04.1*%
%TF.CreationDate,2024-02-04T15:22:38+01:00*%
%TF.ProjectId,tapeadj,74617065-6164-46a2-9e6b-696361645f70,1.0*%
%TF.SameCoordinates,Original*%
%TF.FileFunction,Profile,NP*%
%FSLAX46Y46*%
G04 Gerber Fmt 4.6, Leading zero omitted, Abs format (unit mm)*
G04 Created by KiCad (PCBNEW 7.0.10-7.0.10~ubuntu20.04.1) date 2024-02-04 15:22:38*
%MOMM*%
%LPD*%
G01*
G04 APERTURE LIST*
%TA.AperFunction,Profile*%
%ADD10C,0.100000*%
%TD*%
%TA.AperFunction,Profile*%
%ADD11C,0.050000*%
%TD*%
G04 APERTURE END LIST*
D10*
X73660000Y-116840000D02*
X118745000Y-116840000D01*
X63500000Y-26543000D02*
X63500000Y-110490000D01*
X108704400Y-25069800D02*
X109669600Y-26035000D01*
X118745000Y-116840000D02*
X118745000Y-110490000D01*
X92550000Y-36830000D02*
X92854800Y-36830000D01*
X118745000Y-110490000D02*
X129184400Y-110490000D01*
X111904800Y-25069800D02*
X118864400Y-25069800D01*
X87122000Y-36830000D02*
X87122000Y-26543000D01*
X109669600Y-26035000D02*
X109669600Y-35255200D01*
X118864400Y-25069800D02*
X119829600Y-26035000D01*
X92854800Y-26035000D02*
X93820000Y-25069800D01*
X120134400Y-36830000D02*
X129184400Y-36830000D01*
X109669600Y-35255200D02*
X110939600Y-35255200D01*
X87122000Y-26543000D02*
X63500000Y-26543000D01*
X119829600Y-26035000D02*
X119829600Y-36830000D01*
X110939600Y-26035000D02*
X111904800Y-25069800D01*
X119829600Y-36830000D02*
X120134400Y-36830000D01*
X129184400Y-110490000D02*
X129184400Y-36830000D01*
X73660000Y-116840000D02*
X73660000Y-110490000D01*
X93820000Y-25069800D02*
X108704400Y-25069800D01*
X92550000Y-36830000D02*
X87122000Y-36830000D01*
X73660000Y-110490000D02*
X63500000Y-110490000D01*
X92854800Y-36830000D02*
X92854800Y-26035000D01*
X110939600Y-35255200D02*
X110939600Y-26035000D01*
D11*
%TO.C,CN3*%
X78824000Y-32025002D02*
X76624000Y-32025002D01*
X78824000Y-31325002D02*
X78824000Y-32025002D01*
X78824000Y-31325002D02*
X76624000Y-31325002D01*
X76624000Y-31325002D02*
X76624000Y-32025002D01*
%TD*%
M02*
