%TF.GenerationSoftware,KiCad,Pcbnew,7.0.10-7.0.10~ubuntu20.04.1*%
%TF.CreationDate,2024-02-04T15:22:38+01:00*%
%TF.ProjectId,tapeadj,74617065-6164-46a2-9e6b-696361645f70,1.0*%
%TF.SameCoordinates,Original*%
%TF.FileFunction,Soldermask,Bot*%
%TF.FilePolarity,Negative*%
%FSLAX46Y46*%
G04 Gerber Fmt 4.6, Leading zero omitted, Abs format (unit mm)*
G04 Created by KiCad (PCBNEW 7.0.10-7.0.10~ubuntu20.04.1) date 2024-02-04 15:22:38*
%MOMM*%
%LPD*%
G01*
G04 APERTURE LIST*
G04 Aperture macros list*
%AMRoundRect*
0 Rectangle with rounded corners*
0 $1 Rounding radius*
0 $2 $3 $4 $5 $6 $7 $8 $9 X,Y pos of 4 corners*
0 Add a 4 corners polygon primitive as box body*
4,1,4,$2,$3,$4,$5,$6,$7,$8,$9,$2,$3,0*
0 Add four circle primitives for the rounded corners*
1,1,$1+$1,$2,$3*
1,1,$1+$1,$4,$5*
1,1,$1+$1,$6,$7*
1,1,$1+$1,$8,$9*
0 Add four rect primitives between the rounded corners*
20,1,$1+$1,$2,$3,$4,$5,0*
20,1,$1+$1,$4,$5,$6,$7,0*
20,1,$1+$1,$6,$7,$8,$9,0*
20,1,$1+$1,$8,$9,$2,$3,0*%
%AMOutline5P*
0 Free polygon, 5 corners , with rotation*
0 The origin of the aperture is its center*
0 number of corners: always 5*
0 $1 to $10 corner X, Y*
0 $11 Rotation angle, in degrees counterclockwise*
0 create outline with 5 corners*
4,1,5,$1,$2,$3,$4,$5,$6,$7,$8,$9,$10,$1,$2,$11*%
%AMOutline6P*
0 Free polygon, 6 corners , with rotation*
0 The origin of the aperture is its center*
0 number of corners: always 6*
0 $1 to $12 corner X, Y*
0 $13 Rotation angle, in degrees counterclockwise*
0 create outline with 6 corners*
4,1,6,$1,$2,$3,$4,$5,$6,$7,$8,$9,$10,$11,$12,$1,$2,$13*%
%AMOutline7P*
0 Free polygon, 7 corners , with rotation*
0 The origin of the aperture is its center*
0 number of corners: always 7*
0 $1 to $14 corner X, Y*
0 $15 Rotation angle, in degrees counterclockwise*
0 create outline with 7 corners*
4,1,7,$1,$2,$3,$4,$5,$6,$7,$8,$9,$10,$11,$12,$13,$14,$1,$2,$15*%
%AMOutline8P*
0 Free polygon, 8 corners , with rotation*
0 The origin of the aperture is its center*
0 number of corners: always 8*
0 $1 to $16 corner X, Y*
0 $17 Rotation angle, in degrees counterclockwise*
0 create outline with 8 corners*
4,1,8,$1,$2,$3,$4,$5,$6,$7,$8,$9,$10,$11,$12,$13,$14,$15,$16,$1,$2,$17*%
G04 Aperture macros list end*
%ADD10C,0.100000*%
%ADD11RoundRect,0.625000X-0.625000X-1.875000X0.625000X-1.875000X0.625000X1.875000X-0.625000X1.875000X0*%
%ADD12C,1.600000*%
%ADD13O,1.600000X1.600000*%
%ADD14R,1.800000X4.032000*%
%ADD15O,1.800000X4.000000*%
%ADD16R,2.410000X10.000000*%
%ADD17Outline5P,-1.205000X4.156500X-0.361500X5.000000X1.205000X5.000000X1.205000X-5.000000X-1.205000X-5.000000X0.000000*%
%ADD18Outline5P,-1.205000X5.000000X0.361500X5.000000X1.205000X4.156500X1.205000X-5.000000X-1.205000X-5.000000X0.000000*%
%ADD19R,1.600000X1.600000*%
%ADD20C,1.500000*%
G04 APERTURE END LIST*
%TO.C,CN2*%
D10*
X120558045Y-35261520D02*
X91983045Y-35261520D01*
X91983045Y-23831520D01*
X120558045Y-23831520D01*
X120558045Y-35261520D01*
G36*
X120558045Y-35261520D02*
G01*
X91983045Y-35261520D01*
X91983045Y-23831520D01*
X120558045Y-23831520D01*
X120558045Y-35261520D01*
G37*
%TD*%
D11*
%TO.C,CN1*%
X106127556Y-113575170D03*
X102167556Y-113575170D03*
X98207556Y-113575170D03*
X94247556Y-113575170D03*
X90287556Y-113575170D03*
X86327556Y-113575170D03*
%TD*%
D12*
%TO.C,R4*%
X124460000Y-60960000D03*
D13*
X124460000Y-71120000D03*
%TD*%
D12*
%TO.C,R6*%
X124460000Y-76200000D03*
D13*
X124460000Y-86360000D03*
%TD*%
D14*
%TO.C,BAR4*%
X97790000Y-68580000D03*
D15*
X100330000Y-68580000D03*
X102870000Y-68580000D03*
X105410000Y-68580000D03*
X107950000Y-68580000D03*
X110490000Y-68580000D03*
X113030000Y-68580000D03*
X115570000Y-68580000D03*
X118110000Y-68580000D03*
X120650000Y-68580000D03*
X120650000Y-60960000D03*
X118110000Y-60960000D03*
X115570000Y-60960000D03*
X113030000Y-60960000D03*
X110490000Y-60960000D03*
X107950000Y-60960000D03*
X105410000Y-60960000D03*
X102870000Y-60960000D03*
X100330000Y-60960000D03*
X97790000Y-60960000D03*
%TD*%
D12*
%TO.C,R3*%
X68580000Y-60960000D03*
D13*
X68580000Y-71120000D03*
%TD*%
D14*
%TO.C,BAR2*%
X97790000Y-54610000D03*
D15*
X100330000Y-54610000D03*
X102870000Y-54610000D03*
X105410000Y-54610000D03*
X107950000Y-54610000D03*
X110490000Y-54610000D03*
X113030000Y-54610000D03*
X115570000Y-54610000D03*
X118110000Y-54610000D03*
X120650000Y-54610000D03*
X120650000Y-46990000D03*
X118110000Y-46990000D03*
X115570000Y-46990000D03*
X113030000Y-46990000D03*
X110490000Y-46990000D03*
X107950000Y-46990000D03*
X105410000Y-46990000D03*
X102870000Y-46990000D03*
X100330000Y-46990000D03*
X97790000Y-46990000D03*
%TD*%
D14*
%TO.C,BAR1*%
X72390000Y-54610000D03*
D15*
X74930000Y-54610000D03*
X77470000Y-54610000D03*
X80010000Y-54610000D03*
X82550000Y-54610000D03*
X85090000Y-54610000D03*
X87630000Y-54610000D03*
X90170000Y-54610000D03*
X92710000Y-54610000D03*
X95250000Y-54610000D03*
X95250000Y-46990000D03*
X92710000Y-46990000D03*
X90170000Y-46990000D03*
X87630000Y-46990000D03*
X85090000Y-46990000D03*
X82550000Y-46990000D03*
X80010000Y-46990000D03*
X77470000Y-46990000D03*
X74930000Y-46990000D03*
X72390000Y-46990000D03*
%TD*%
D16*
%TO.C,CN2*%
X116228045Y-30181520D03*
D17*
X112268045Y-30181520D03*
D18*
X108308045Y-30181520D03*
D16*
X104348045Y-30181520D03*
X100388045Y-30181520D03*
X96428045Y-30181520D03*
%TD*%
D12*
%TO.C,R5*%
X68580000Y-76200000D03*
D13*
X68580000Y-86360000D03*
%TD*%
D14*
%TO.C,BAR6*%
X97790000Y-82550000D03*
D15*
X100330000Y-82550000D03*
X102870000Y-82550000D03*
X105410000Y-82550000D03*
X107950000Y-82550000D03*
X110490000Y-82550000D03*
X113030000Y-82550000D03*
X115570000Y-82550000D03*
X118110000Y-82550000D03*
X120650000Y-82550000D03*
X120650000Y-74930000D03*
X118110000Y-74930000D03*
X115570000Y-74930000D03*
X113030000Y-74930000D03*
X110490000Y-74930000D03*
X107950000Y-74930000D03*
X105410000Y-74930000D03*
X102870000Y-74930000D03*
X100330000Y-74930000D03*
X97790000Y-74930000D03*
%TD*%
D14*
%TO.C,BAR3*%
X72390000Y-68580000D03*
D15*
X74930000Y-68580000D03*
X77470000Y-68580000D03*
X80010000Y-68580000D03*
X82550000Y-68580000D03*
X85090000Y-68580000D03*
X87630000Y-68580000D03*
X90170000Y-68580000D03*
X92710000Y-68580000D03*
X95250000Y-68580000D03*
X95250000Y-60960000D03*
X92710000Y-60960000D03*
X90170000Y-60960000D03*
X87630000Y-60960000D03*
X85090000Y-60960000D03*
X82550000Y-60960000D03*
X80010000Y-60960000D03*
X77470000Y-60960000D03*
X74930000Y-60960000D03*
X72390000Y-60960000D03*
%TD*%
D12*
%TO.C,R2*%
X124460000Y-46990000D03*
D13*
X124460000Y-57150000D03*
%TD*%
D19*
%TO.C,A1*%
X114300000Y-90180000D03*
D13*
X111760000Y-90180000D03*
X109220000Y-90180000D03*
X106680000Y-90180000D03*
X104140000Y-90180000D03*
X101600000Y-90180000D03*
X99060000Y-90180000D03*
X96520000Y-90180000D03*
X93980000Y-90180000D03*
X91440000Y-90180000D03*
X88900000Y-90180000D03*
X86360000Y-90180000D03*
X83820000Y-90180000D03*
X81280000Y-90180000D03*
X78740000Y-90180000D03*
X78740000Y-105420000D03*
X81280000Y-105420000D03*
X83820000Y-105420000D03*
X86360000Y-105420000D03*
X88900000Y-105420000D03*
X91440000Y-105420000D03*
X93980000Y-105420000D03*
X96520000Y-105420000D03*
X99060000Y-105420000D03*
X101600000Y-105420000D03*
X104140000Y-105420000D03*
X106680000Y-105420000D03*
X109220000Y-105420000D03*
X111760000Y-105420000D03*
X114300000Y-105420000D03*
%TD*%
D12*
%TO.C,R1*%
X68580000Y-46990000D03*
D13*
X68580000Y-57150000D03*
%TD*%
D20*
%TO.C,CN3*%
X76424000Y-35473000D03*
X79024000Y-35473000D03*
X74324000Y-35473000D03*
X81124000Y-35473000D03*
X74324000Y-37973000D03*
X78624000Y-37973000D03*
X81124000Y-37973000D03*
%TD*%
D14*
%TO.C,BAR5*%
X72390000Y-82550000D03*
D15*
X74930000Y-82550000D03*
X77470000Y-82550000D03*
X80010000Y-82550000D03*
X82550000Y-82550000D03*
X85090000Y-82550000D03*
X87630000Y-82550000D03*
X90170000Y-82550000D03*
X92710000Y-82550000D03*
X95250000Y-82550000D03*
X95250000Y-74930000D03*
X92710000Y-74930000D03*
X90170000Y-74930000D03*
X87630000Y-74930000D03*
X85090000Y-74930000D03*
X82550000Y-74930000D03*
X80010000Y-74930000D03*
X77470000Y-74930000D03*
X74930000Y-74930000D03*
X72390000Y-74930000D03*
%TD*%
M02*
