%TF.GenerationSoftware,KiCad,Pcbnew,7.0.10-7.0.10~ubuntu20.04.1*%
%TF.CreationDate,2024-02-04T15:22:38+01:00*%
%TF.ProjectId,tapeadj,74617065-6164-46a2-9e6b-696361645f70,1.0*%
%TF.SameCoordinates,Original*%
%TF.FileFunction,Legend,Top*%
%TF.FilePolarity,Positive*%
%FSLAX46Y46*%
G04 Gerber Fmt 4.6, Leading zero omitted, Abs format (unit mm)*
G04 Created by KiCad (PCBNEW 7.0.10-7.0.10~ubuntu20.04.1) date 2024-02-04 15:22:38*
%MOMM*%
%LPD*%
G01*
G04 APERTURE LIST*
%ADD10C,0.250000*%
%ADD11C,0.500000*%
%ADD12C,0.300000*%
%ADD13C,0.150000*%
%ADD14C,0.120000*%
G04 APERTURE END LIST*
D10*
X115984377Y-44538023D02*
X115567711Y-43942785D01*
X115270092Y-44538023D02*
X115270092Y-43288023D01*
X115270092Y-43288023D02*
X115746282Y-43288023D01*
X115746282Y-43288023D02*
X115865330Y-43347547D01*
X115865330Y-43347547D02*
X115924853Y-43407071D01*
X115924853Y-43407071D02*
X115984377Y-43526119D01*
X115984377Y-43526119D02*
X115984377Y-43704690D01*
X115984377Y-43704690D02*
X115924853Y-43823738D01*
X115924853Y-43823738D02*
X115865330Y-43883261D01*
X115865330Y-43883261D02*
X115746282Y-43942785D01*
X115746282Y-43942785D02*
X115270092Y-43942785D01*
X116996282Y-44478500D02*
X116877234Y-44538023D01*
X116877234Y-44538023D02*
X116639139Y-44538023D01*
X116639139Y-44538023D02*
X116520092Y-44478500D01*
X116520092Y-44478500D02*
X116460568Y-44359452D01*
X116460568Y-44359452D02*
X116460568Y-43883261D01*
X116460568Y-43883261D02*
X116520092Y-43764214D01*
X116520092Y-43764214D02*
X116639139Y-43704690D01*
X116639139Y-43704690D02*
X116877234Y-43704690D01*
X116877234Y-43704690D02*
X116996282Y-43764214D01*
X116996282Y-43764214D02*
X117055806Y-43883261D01*
X117055806Y-43883261D02*
X117055806Y-44002309D01*
X117055806Y-44002309D02*
X116460568Y-44121357D01*
X117472473Y-43704690D02*
X117770092Y-44538023D01*
X117770092Y-44538023D02*
X118067711Y-43704690D01*
X120151044Y-44538023D02*
X119436759Y-44538023D01*
X119793902Y-44538023D02*
X119793902Y-43288023D01*
X119793902Y-43288023D02*
X119674854Y-43466595D01*
X119674854Y-43466595D02*
X119555806Y-43585642D01*
X119555806Y-43585642D02*
X119436759Y-43645166D01*
X120686759Y-44418976D02*
X120746282Y-44478500D01*
X120746282Y-44478500D02*
X120686759Y-44538023D01*
X120686759Y-44538023D02*
X120627235Y-44478500D01*
X120627235Y-44478500D02*
X120686759Y-44418976D01*
X120686759Y-44418976D02*
X120686759Y-44538023D01*
X121520092Y-43288023D02*
X121639139Y-43288023D01*
X121639139Y-43288023D02*
X121758187Y-43347547D01*
X121758187Y-43347547D02*
X121817711Y-43407071D01*
X121817711Y-43407071D02*
X121877235Y-43526119D01*
X121877235Y-43526119D02*
X121936758Y-43764214D01*
X121936758Y-43764214D02*
X121936758Y-44061833D01*
X121936758Y-44061833D02*
X121877235Y-44299928D01*
X121877235Y-44299928D02*
X121817711Y-44418976D01*
X121817711Y-44418976D02*
X121758187Y-44478500D01*
X121758187Y-44478500D02*
X121639139Y-44538023D01*
X121639139Y-44538023D02*
X121520092Y-44538023D01*
X121520092Y-44538023D02*
X121401044Y-44478500D01*
X121401044Y-44478500D02*
X121341520Y-44418976D01*
X121341520Y-44418976D02*
X121281997Y-44299928D01*
X121281997Y-44299928D02*
X121222473Y-44061833D01*
X121222473Y-44061833D02*
X121222473Y-43764214D01*
X121222473Y-43764214D02*
X121281997Y-43526119D01*
X121281997Y-43526119D02*
X121341520Y-43407071D01*
X121341520Y-43407071D02*
X121401044Y-43347547D01*
X121401044Y-43347547D02*
X121520092Y-43288023D01*
D11*
X75506394Y-42566361D02*
X75411156Y-42661600D01*
X75411156Y-42661600D02*
X75125442Y-42756838D01*
X75125442Y-42756838D02*
X74934966Y-42756838D01*
X74934966Y-42756838D02*
X74649251Y-42661600D01*
X74649251Y-42661600D02*
X74458775Y-42471123D01*
X74458775Y-42471123D02*
X74363537Y-42280647D01*
X74363537Y-42280647D02*
X74268299Y-41899695D01*
X74268299Y-41899695D02*
X74268299Y-41613980D01*
X74268299Y-41613980D02*
X74363537Y-41233028D01*
X74363537Y-41233028D02*
X74458775Y-41042552D01*
X74458775Y-41042552D02*
X74649251Y-40852076D01*
X74649251Y-40852076D02*
X74934966Y-40756838D01*
X74934966Y-40756838D02*
X75125442Y-40756838D01*
X75125442Y-40756838D02*
X75411156Y-40852076D01*
X75411156Y-40852076D02*
X75506394Y-40947314D01*
X76649251Y-42756838D02*
X76458775Y-42661600D01*
X76458775Y-42661600D02*
X76363537Y-42566361D01*
X76363537Y-42566361D02*
X76268299Y-42375885D01*
X76268299Y-42375885D02*
X76268299Y-41804457D01*
X76268299Y-41804457D02*
X76363537Y-41613980D01*
X76363537Y-41613980D02*
X76458775Y-41518742D01*
X76458775Y-41518742D02*
X76649251Y-41423504D01*
X76649251Y-41423504D02*
X76934966Y-41423504D01*
X76934966Y-41423504D02*
X77125442Y-41518742D01*
X77125442Y-41518742D02*
X77220680Y-41613980D01*
X77220680Y-41613980D02*
X77315918Y-41804457D01*
X77315918Y-41804457D02*
X77315918Y-42375885D01*
X77315918Y-42375885D02*
X77220680Y-42566361D01*
X77220680Y-42566361D02*
X77125442Y-42661600D01*
X77125442Y-42661600D02*
X76934966Y-42756838D01*
X76934966Y-42756838D02*
X76649251Y-42756838D01*
X78173061Y-42756838D02*
X78173061Y-41423504D01*
X78173061Y-41613980D02*
X78268299Y-41518742D01*
X78268299Y-41518742D02*
X78458775Y-41423504D01*
X78458775Y-41423504D02*
X78744490Y-41423504D01*
X78744490Y-41423504D02*
X78934966Y-41518742D01*
X78934966Y-41518742D02*
X79030204Y-41709219D01*
X79030204Y-41709219D02*
X79030204Y-42756838D01*
X79030204Y-41709219D02*
X79125442Y-41518742D01*
X79125442Y-41518742D02*
X79315918Y-41423504D01*
X79315918Y-41423504D02*
X79601632Y-41423504D01*
X79601632Y-41423504D02*
X79792109Y-41518742D01*
X79792109Y-41518742D02*
X79887347Y-41709219D01*
X79887347Y-41709219D02*
X79887347Y-42756838D01*
X80839728Y-42756838D02*
X80839728Y-41423504D01*
X80839728Y-41613980D02*
X80934966Y-41518742D01*
X80934966Y-41518742D02*
X81125442Y-41423504D01*
X81125442Y-41423504D02*
X81411157Y-41423504D01*
X81411157Y-41423504D02*
X81601633Y-41518742D01*
X81601633Y-41518742D02*
X81696871Y-41709219D01*
X81696871Y-41709219D02*
X81696871Y-42756838D01*
X81696871Y-41709219D02*
X81792109Y-41518742D01*
X81792109Y-41518742D02*
X81982585Y-41423504D01*
X81982585Y-41423504D02*
X82268299Y-41423504D01*
X82268299Y-41423504D02*
X82458776Y-41518742D01*
X82458776Y-41518742D02*
X82554014Y-41709219D01*
X82554014Y-41709219D02*
X82554014Y-42756838D01*
X83792109Y-42756838D02*
X83601633Y-42661600D01*
X83601633Y-42661600D02*
X83506395Y-42566361D01*
X83506395Y-42566361D02*
X83411157Y-42375885D01*
X83411157Y-42375885D02*
X83411157Y-41804457D01*
X83411157Y-41804457D02*
X83506395Y-41613980D01*
X83506395Y-41613980D02*
X83601633Y-41518742D01*
X83601633Y-41518742D02*
X83792109Y-41423504D01*
X83792109Y-41423504D02*
X84077824Y-41423504D01*
X84077824Y-41423504D02*
X84268300Y-41518742D01*
X84268300Y-41518742D02*
X84363538Y-41613980D01*
X84363538Y-41613980D02*
X84458776Y-41804457D01*
X84458776Y-41804457D02*
X84458776Y-42375885D01*
X84458776Y-42375885D02*
X84363538Y-42566361D01*
X84363538Y-42566361D02*
X84268300Y-42661600D01*
X84268300Y-42661600D02*
X84077824Y-42756838D01*
X84077824Y-42756838D02*
X83792109Y-42756838D01*
X86173062Y-42756838D02*
X86173062Y-40756838D01*
X86173062Y-42661600D02*
X85982586Y-42756838D01*
X85982586Y-42756838D02*
X85601633Y-42756838D01*
X85601633Y-42756838D02*
X85411157Y-42661600D01*
X85411157Y-42661600D02*
X85315919Y-42566361D01*
X85315919Y-42566361D02*
X85220681Y-42375885D01*
X85220681Y-42375885D02*
X85220681Y-41804457D01*
X85220681Y-41804457D02*
X85315919Y-41613980D01*
X85315919Y-41613980D02*
X85411157Y-41518742D01*
X85411157Y-41518742D02*
X85601633Y-41423504D01*
X85601633Y-41423504D02*
X85982586Y-41423504D01*
X85982586Y-41423504D02*
X86173062Y-41518742D01*
X87411157Y-42756838D02*
X87220681Y-42661600D01*
X87220681Y-42661600D02*
X87125443Y-42566361D01*
X87125443Y-42566361D02*
X87030205Y-42375885D01*
X87030205Y-42375885D02*
X87030205Y-41804457D01*
X87030205Y-41804457D02*
X87125443Y-41613980D01*
X87125443Y-41613980D02*
X87220681Y-41518742D01*
X87220681Y-41518742D02*
X87411157Y-41423504D01*
X87411157Y-41423504D02*
X87696872Y-41423504D01*
X87696872Y-41423504D02*
X87887348Y-41518742D01*
X87887348Y-41518742D02*
X87982586Y-41613980D01*
X87982586Y-41613980D02*
X88077824Y-41804457D01*
X88077824Y-41804457D02*
X88077824Y-42375885D01*
X88077824Y-42375885D02*
X87982586Y-42566361D01*
X87982586Y-42566361D02*
X87887348Y-42661600D01*
X87887348Y-42661600D02*
X87696872Y-42756838D01*
X87696872Y-42756838D02*
X87411157Y-42756838D01*
X88934967Y-42756838D02*
X88934967Y-41423504D01*
X88934967Y-41804457D02*
X89030205Y-41613980D01*
X89030205Y-41613980D02*
X89125443Y-41518742D01*
X89125443Y-41518742D02*
X89315919Y-41423504D01*
X89315919Y-41423504D02*
X89506396Y-41423504D01*
X90934967Y-42661600D02*
X90744491Y-42756838D01*
X90744491Y-42756838D02*
X90363538Y-42756838D01*
X90363538Y-42756838D02*
X90173062Y-42661600D01*
X90173062Y-42661600D02*
X90077824Y-42471123D01*
X90077824Y-42471123D02*
X90077824Y-41709219D01*
X90077824Y-41709219D02*
X90173062Y-41518742D01*
X90173062Y-41518742D02*
X90363538Y-41423504D01*
X90363538Y-41423504D02*
X90744491Y-41423504D01*
X90744491Y-41423504D02*
X90934967Y-41518742D01*
X90934967Y-41518742D02*
X91030205Y-41709219D01*
X91030205Y-41709219D02*
X91030205Y-41899695D01*
X91030205Y-41899695D02*
X90077824Y-42090171D01*
X93125444Y-40756838D02*
X94268301Y-40756838D01*
X93696872Y-42756838D02*
X93696872Y-40756838D01*
X95792111Y-42756838D02*
X95792111Y-41709219D01*
X95792111Y-41709219D02*
X95696873Y-41518742D01*
X95696873Y-41518742D02*
X95506397Y-41423504D01*
X95506397Y-41423504D02*
X95125444Y-41423504D01*
X95125444Y-41423504D02*
X94934968Y-41518742D01*
X95792111Y-42661600D02*
X95601635Y-42756838D01*
X95601635Y-42756838D02*
X95125444Y-42756838D01*
X95125444Y-42756838D02*
X94934968Y-42661600D01*
X94934968Y-42661600D02*
X94839730Y-42471123D01*
X94839730Y-42471123D02*
X94839730Y-42280647D01*
X94839730Y-42280647D02*
X94934968Y-42090171D01*
X94934968Y-42090171D02*
X95125444Y-41994933D01*
X95125444Y-41994933D02*
X95601635Y-41994933D01*
X95601635Y-41994933D02*
X95792111Y-41899695D01*
X96744492Y-41423504D02*
X96744492Y-43423504D01*
X96744492Y-41518742D02*
X96934968Y-41423504D01*
X96934968Y-41423504D02*
X97315921Y-41423504D01*
X97315921Y-41423504D02*
X97506397Y-41518742D01*
X97506397Y-41518742D02*
X97601635Y-41613980D01*
X97601635Y-41613980D02*
X97696873Y-41804457D01*
X97696873Y-41804457D02*
X97696873Y-42375885D01*
X97696873Y-42375885D02*
X97601635Y-42566361D01*
X97601635Y-42566361D02*
X97506397Y-42661600D01*
X97506397Y-42661600D02*
X97315921Y-42756838D01*
X97315921Y-42756838D02*
X96934968Y-42756838D01*
X96934968Y-42756838D02*
X96744492Y-42661600D01*
X99315921Y-42661600D02*
X99125445Y-42756838D01*
X99125445Y-42756838D02*
X98744492Y-42756838D01*
X98744492Y-42756838D02*
X98554016Y-42661600D01*
X98554016Y-42661600D02*
X98458778Y-42471123D01*
X98458778Y-42471123D02*
X98458778Y-41709219D01*
X98458778Y-41709219D02*
X98554016Y-41518742D01*
X98554016Y-41518742D02*
X98744492Y-41423504D01*
X98744492Y-41423504D02*
X99125445Y-41423504D01*
X99125445Y-41423504D02*
X99315921Y-41518742D01*
X99315921Y-41518742D02*
X99411159Y-41709219D01*
X99411159Y-41709219D02*
X99411159Y-41899695D01*
X99411159Y-41899695D02*
X98458778Y-42090171D01*
X101792112Y-42756838D02*
X101792112Y-40756838D01*
X101792112Y-40756838D02*
X102554017Y-40756838D01*
X102554017Y-40756838D02*
X102744493Y-40852076D01*
X102744493Y-40852076D02*
X102839731Y-40947314D01*
X102839731Y-40947314D02*
X102934969Y-41137790D01*
X102934969Y-41137790D02*
X102934969Y-41423504D01*
X102934969Y-41423504D02*
X102839731Y-41613980D01*
X102839731Y-41613980D02*
X102744493Y-41709219D01*
X102744493Y-41709219D02*
X102554017Y-41804457D01*
X102554017Y-41804457D02*
X101792112Y-41804457D01*
X104649255Y-41423504D02*
X104649255Y-42756838D01*
X103792112Y-41423504D02*
X103792112Y-42471123D01*
X103792112Y-42471123D02*
X103887350Y-42661600D01*
X103887350Y-42661600D02*
X104077826Y-42756838D01*
X104077826Y-42756838D02*
X104363541Y-42756838D01*
X104363541Y-42756838D02*
X104554017Y-42661600D01*
X104554017Y-42661600D02*
X104649255Y-42566361D01*
X105887350Y-42756838D02*
X105696874Y-42661600D01*
X105696874Y-42661600D02*
X105601636Y-42471123D01*
X105601636Y-42471123D02*
X105601636Y-40756838D01*
X106554017Y-42661600D02*
X106744493Y-42756838D01*
X106744493Y-42756838D02*
X107125445Y-42756838D01*
X107125445Y-42756838D02*
X107315922Y-42661600D01*
X107315922Y-42661600D02*
X107411160Y-42471123D01*
X107411160Y-42471123D02*
X107411160Y-42375885D01*
X107411160Y-42375885D02*
X107315922Y-42185409D01*
X107315922Y-42185409D02*
X107125445Y-42090171D01*
X107125445Y-42090171D02*
X106839731Y-42090171D01*
X106839731Y-42090171D02*
X106649255Y-41994933D01*
X106649255Y-41994933D02*
X106554017Y-41804457D01*
X106554017Y-41804457D02*
X106554017Y-41709219D01*
X106554017Y-41709219D02*
X106649255Y-41518742D01*
X106649255Y-41518742D02*
X106839731Y-41423504D01*
X106839731Y-41423504D02*
X107125445Y-41423504D01*
X107125445Y-41423504D02*
X107315922Y-41518742D01*
X109030208Y-42661600D02*
X108839732Y-42756838D01*
X108839732Y-42756838D02*
X108458779Y-42756838D01*
X108458779Y-42756838D02*
X108268303Y-42661600D01*
X108268303Y-42661600D02*
X108173065Y-42471123D01*
X108173065Y-42471123D02*
X108173065Y-41709219D01*
X108173065Y-41709219D02*
X108268303Y-41518742D01*
X108268303Y-41518742D02*
X108458779Y-41423504D01*
X108458779Y-41423504D02*
X108839732Y-41423504D01*
X108839732Y-41423504D02*
X109030208Y-41518742D01*
X109030208Y-41518742D02*
X109125446Y-41709219D01*
X109125446Y-41709219D02*
X109125446Y-41899695D01*
X109125446Y-41899695D02*
X108173065Y-42090171D01*
X111220685Y-40756838D02*
X111887351Y-42756838D01*
X111887351Y-42756838D02*
X112554018Y-40756838D01*
X113220685Y-42756838D02*
X113220685Y-41423504D01*
X113220685Y-40756838D02*
X113125447Y-40852076D01*
X113125447Y-40852076D02*
X113220685Y-40947314D01*
X113220685Y-40947314D02*
X113315923Y-40852076D01*
X113315923Y-40852076D02*
X113220685Y-40756838D01*
X113220685Y-40756838D02*
X113220685Y-40947314D01*
X114077828Y-42661600D02*
X114268304Y-42756838D01*
X114268304Y-42756838D02*
X114649256Y-42756838D01*
X114649256Y-42756838D02*
X114839733Y-42661600D01*
X114839733Y-42661600D02*
X114934971Y-42471123D01*
X114934971Y-42471123D02*
X114934971Y-42375885D01*
X114934971Y-42375885D02*
X114839733Y-42185409D01*
X114839733Y-42185409D02*
X114649256Y-42090171D01*
X114649256Y-42090171D02*
X114363542Y-42090171D01*
X114363542Y-42090171D02*
X114173066Y-41994933D01*
X114173066Y-41994933D02*
X114077828Y-41804457D01*
X114077828Y-41804457D02*
X114077828Y-41709219D01*
X114077828Y-41709219D02*
X114173066Y-41518742D01*
X114173066Y-41518742D02*
X114363542Y-41423504D01*
X114363542Y-41423504D02*
X114649256Y-41423504D01*
X114649256Y-41423504D02*
X114839733Y-41518742D01*
X116649257Y-41423504D02*
X116649257Y-42756838D01*
X115792114Y-41423504D02*
X115792114Y-42471123D01*
X115792114Y-42471123D02*
X115887352Y-42661600D01*
X115887352Y-42661600D02*
X116077828Y-42756838D01*
X116077828Y-42756838D02*
X116363543Y-42756838D01*
X116363543Y-42756838D02*
X116554019Y-42661600D01*
X116554019Y-42661600D02*
X116649257Y-42566361D01*
X118458781Y-42756838D02*
X118458781Y-41709219D01*
X118458781Y-41709219D02*
X118363543Y-41518742D01*
X118363543Y-41518742D02*
X118173067Y-41423504D01*
X118173067Y-41423504D02*
X117792114Y-41423504D01*
X117792114Y-41423504D02*
X117601638Y-41518742D01*
X118458781Y-42661600D02*
X118268305Y-42756838D01*
X118268305Y-42756838D02*
X117792114Y-42756838D01*
X117792114Y-42756838D02*
X117601638Y-42661600D01*
X117601638Y-42661600D02*
X117506400Y-42471123D01*
X117506400Y-42471123D02*
X117506400Y-42280647D01*
X117506400Y-42280647D02*
X117601638Y-42090171D01*
X117601638Y-42090171D02*
X117792114Y-41994933D01*
X117792114Y-41994933D02*
X118268305Y-41994933D01*
X118268305Y-41994933D02*
X118458781Y-41899695D01*
X119696876Y-42756838D02*
X119506400Y-42661600D01*
X119506400Y-42661600D02*
X119411162Y-42471123D01*
X119411162Y-42471123D02*
X119411162Y-40756838D01*
X120458781Y-42756838D02*
X120458781Y-41423504D01*
X120458781Y-40756838D02*
X120363543Y-40852076D01*
X120363543Y-40852076D02*
X120458781Y-40947314D01*
X120458781Y-40947314D02*
X120554019Y-40852076D01*
X120554019Y-40852076D02*
X120458781Y-40756838D01*
X120458781Y-40756838D02*
X120458781Y-40947314D01*
X121220686Y-41423504D02*
X122268305Y-41423504D01*
X122268305Y-41423504D02*
X121220686Y-42756838D01*
X121220686Y-42756838D02*
X122268305Y-42756838D01*
X123792115Y-42661600D02*
X123601639Y-42756838D01*
X123601639Y-42756838D02*
X123220686Y-42756838D01*
X123220686Y-42756838D02*
X123030210Y-42661600D01*
X123030210Y-42661600D02*
X122934972Y-42471123D01*
X122934972Y-42471123D02*
X122934972Y-41709219D01*
X122934972Y-41709219D02*
X123030210Y-41518742D01*
X123030210Y-41518742D02*
X123220686Y-41423504D01*
X123220686Y-41423504D02*
X123601639Y-41423504D01*
X123601639Y-41423504D02*
X123792115Y-41518742D01*
X123792115Y-41518742D02*
X123887353Y-41709219D01*
X123887353Y-41709219D02*
X123887353Y-41899695D01*
X123887353Y-41899695D02*
X122934972Y-42090171D01*
X124744496Y-42756838D02*
X124744496Y-41423504D01*
X124744496Y-41804457D02*
X124839734Y-41613980D01*
X124839734Y-41613980D02*
X124934972Y-41518742D01*
X124934972Y-41518742D02*
X125125448Y-41423504D01*
X125125448Y-41423504D02*
X125315925Y-41423504D01*
D12*
X120434510Y-90580114D02*
X120648796Y-90651542D01*
X120648796Y-90651542D02*
X120720225Y-90722971D01*
X120720225Y-90722971D02*
X120791653Y-90865828D01*
X120791653Y-90865828D02*
X120791653Y-91080114D01*
X120791653Y-91080114D02*
X120720225Y-91222971D01*
X120720225Y-91222971D02*
X120648796Y-91294400D01*
X120648796Y-91294400D02*
X120505939Y-91365828D01*
X120505939Y-91365828D02*
X119934510Y-91365828D01*
X119934510Y-91365828D02*
X119934510Y-89865828D01*
X119934510Y-89865828D02*
X120434510Y-89865828D01*
X120434510Y-89865828D02*
X120577368Y-89937257D01*
X120577368Y-89937257D02*
X120648796Y-90008685D01*
X120648796Y-90008685D02*
X120720225Y-90151542D01*
X120720225Y-90151542D02*
X120720225Y-90294400D01*
X120720225Y-90294400D02*
X120648796Y-90437257D01*
X120648796Y-90437257D02*
X120577368Y-90508685D01*
X120577368Y-90508685D02*
X120434510Y-90580114D01*
X120434510Y-90580114D02*
X119934510Y-90580114D01*
X121291653Y-89865828D02*
X121648796Y-91365828D01*
X121648796Y-91365828D02*
X121934510Y-90294400D01*
X121934510Y-90294400D02*
X122220225Y-91365828D01*
X122220225Y-91365828D02*
X122577368Y-89865828D01*
X123077368Y-90937257D02*
X123791654Y-90937257D01*
X122934511Y-91365828D02*
X123434511Y-89865828D01*
X123434511Y-89865828D02*
X123934511Y-91365828D01*
X125291653Y-91222971D02*
X125220225Y-91294400D01*
X125220225Y-91294400D02*
X125005939Y-91365828D01*
X125005939Y-91365828D02*
X124863082Y-91365828D01*
X124863082Y-91365828D02*
X124648796Y-91294400D01*
X124648796Y-91294400D02*
X124505939Y-91151542D01*
X124505939Y-91151542D02*
X124434510Y-91008685D01*
X124434510Y-91008685D02*
X124363082Y-90722971D01*
X124363082Y-90722971D02*
X124363082Y-90508685D01*
X124363082Y-90508685D02*
X124434510Y-90222971D01*
X124434510Y-90222971D02*
X124505939Y-90080114D01*
X124505939Y-90080114D02*
X124648796Y-89937257D01*
X124648796Y-89937257D02*
X124863082Y-89865828D01*
X124863082Y-89865828D02*
X125005939Y-89865828D01*
X125005939Y-89865828D02*
X125220225Y-89937257D01*
X125220225Y-89937257D02*
X125291653Y-90008685D01*
X125934510Y-91365828D02*
X125934510Y-89865828D01*
X126791653Y-91365828D02*
X126148796Y-90508685D01*
X126791653Y-89865828D02*
X125934510Y-90722971D01*
X119863082Y-92423685D02*
X119934510Y-92352257D01*
X119934510Y-92352257D02*
X120077368Y-92280828D01*
X120077368Y-92280828D02*
X120434510Y-92280828D01*
X120434510Y-92280828D02*
X120577368Y-92352257D01*
X120577368Y-92352257D02*
X120648796Y-92423685D01*
X120648796Y-92423685D02*
X120720225Y-92566542D01*
X120720225Y-92566542D02*
X120720225Y-92709400D01*
X120720225Y-92709400D02*
X120648796Y-92923685D01*
X120648796Y-92923685D02*
X119791653Y-93780828D01*
X119791653Y-93780828D02*
X120720225Y-93780828D01*
X121648796Y-92280828D02*
X121791653Y-92280828D01*
X121791653Y-92280828D02*
X121934510Y-92352257D01*
X121934510Y-92352257D02*
X122005939Y-92423685D01*
X122005939Y-92423685D02*
X122077367Y-92566542D01*
X122077367Y-92566542D02*
X122148796Y-92852257D01*
X122148796Y-92852257D02*
X122148796Y-93209400D01*
X122148796Y-93209400D02*
X122077367Y-93495114D01*
X122077367Y-93495114D02*
X122005939Y-93637971D01*
X122005939Y-93637971D02*
X121934510Y-93709400D01*
X121934510Y-93709400D02*
X121791653Y-93780828D01*
X121791653Y-93780828D02*
X121648796Y-93780828D01*
X121648796Y-93780828D02*
X121505939Y-93709400D01*
X121505939Y-93709400D02*
X121434510Y-93637971D01*
X121434510Y-93637971D02*
X121363081Y-93495114D01*
X121363081Y-93495114D02*
X121291653Y-93209400D01*
X121291653Y-93209400D02*
X121291653Y-92852257D01*
X121291653Y-92852257D02*
X121363081Y-92566542D01*
X121363081Y-92566542D02*
X121434510Y-92423685D01*
X121434510Y-92423685D02*
X121505939Y-92352257D01*
X121505939Y-92352257D02*
X121648796Y-92280828D01*
X122720224Y-92423685D02*
X122791652Y-92352257D01*
X122791652Y-92352257D02*
X122934510Y-92280828D01*
X122934510Y-92280828D02*
X123291652Y-92280828D01*
X123291652Y-92280828D02*
X123434510Y-92352257D01*
X123434510Y-92352257D02*
X123505938Y-92423685D01*
X123505938Y-92423685D02*
X123577367Y-92566542D01*
X123577367Y-92566542D02*
X123577367Y-92709400D01*
X123577367Y-92709400D02*
X123505938Y-92923685D01*
X123505938Y-92923685D02*
X122648795Y-93780828D01*
X122648795Y-93780828D02*
X123577367Y-93780828D01*
X124863081Y-92780828D02*
X124863081Y-93780828D01*
X124505938Y-92209400D02*
X124148795Y-93280828D01*
X124148795Y-93280828D02*
X125077366Y-93280828D01*
D10*
X81006285Y-114365226D02*
X80934857Y-114424750D01*
X80934857Y-114424750D02*
X80720571Y-114484273D01*
X80720571Y-114484273D02*
X80577714Y-114484273D01*
X80577714Y-114484273D02*
X80363428Y-114424750D01*
X80363428Y-114424750D02*
X80220571Y-114305702D01*
X80220571Y-114305702D02*
X80149142Y-114186654D01*
X80149142Y-114186654D02*
X80077714Y-113948559D01*
X80077714Y-113948559D02*
X80077714Y-113769988D01*
X80077714Y-113769988D02*
X80149142Y-113531892D01*
X80149142Y-113531892D02*
X80220571Y-113412845D01*
X80220571Y-113412845D02*
X80363428Y-113293797D01*
X80363428Y-113293797D02*
X80577714Y-113234273D01*
X80577714Y-113234273D02*
X80720571Y-113234273D01*
X80720571Y-113234273D02*
X80934857Y-113293797D01*
X80934857Y-113293797D02*
X81006285Y-113353321D01*
X81649142Y-114484273D02*
X81649142Y-113234273D01*
X81649142Y-113234273D02*
X82506285Y-114484273D01*
X82506285Y-114484273D02*
X82506285Y-113234273D01*
X84006286Y-114484273D02*
X83149143Y-114484273D01*
X83577714Y-114484273D02*
X83577714Y-113234273D01*
X83577714Y-113234273D02*
X83434857Y-113412845D01*
X83434857Y-113412845D02*
X83292000Y-113531892D01*
X83292000Y-113531892D02*
X83149143Y-113591416D01*
D13*
X124293333Y-73479819D02*
X123960000Y-73003628D01*
X123721905Y-73479819D02*
X123721905Y-72479819D01*
X123721905Y-72479819D02*
X124102857Y-72479819D01*
X124102857Y-72479819D02*
X124198095Y-72527438D01*
X124198095Y-72527438D02*
X124245714Y-72575057D01*
X124245714Y-72575057D02*
X124293333Y-72670295D01*
X124293333Y-72670295D02*
X124293333Y-72813152D01*
X124293333Y-72813152D02*
X124245714Y-72908390D01*
X124245714Y-72908390D02*
X124198095Y-72956009D01*
X124198095Y-72956009D02*
X124102857Y-73003628D01*
X124102857Y-73003628D02*
X123721905Y-73003628D01*
X125150476Y-72813152D02*
X125150476Y-73479819D01*
X124912381Y-72432200D02*
X124674286Y-73146485D01*
X124674286Y-73146485D02*
X125293333Y-73146485D01*
X124293333Y-88719819D02*
X123960000Y-88243628D01*
X123721905Y-88719819D02*
X123721905Y-87719819D01*
X123721905Y-87719819D02*
X124102857Y-87719819D01*
X124102857Y-87719819D02*
X124198095Y-87767438D01*
X124198095Y-87767438D02*
X124245714Y-87815057D01*
X124245714Y-87815057D02*
X124293333Y-87910295D01*
X124293333Y-87910295D02*
X124293333Y-88053152D01*
X124293333Y-88053152D02*
X124245714Y-88148390D01*
X124245714Y-88148390D02*
X124198095Y-88196009D01*
X124198095Y-88196009D02*
X124102857Y-88243628D01*
X124102857Y-88243628D02*
X123721905Y-88243628D01*
X125150476Y-87719819D02*
X124960000Y-87719819D01*
X124960000Y-87719819D02*
X124864762Y-87767438D01*
X124864762Y-87767438D02*
X124817143Y-87815057D01*
X124817143Y-87815057D02*
X124721905Y-87957914D01*
X124721905Y-87957914D02*
X124674286Y-88148390D01*
X124674286Y-88148390D02*
X124674286Y-88529342D01*
X124674286Y-88529342D02*
X124721905Y-88624580D01*
X124721905Y-88624580D02*
X124769524Y-88672200D01*
X124769524Y-88672200D02*
X124864762Y-88719819D01*
X124864762Y-88719819D02*
X125055238Y-88719819D01*
X125055238Y-88719819D02*
X125150476Y-88672200D01*
X125150476Y-88672200D02*
X125198095Y-88624580D01*
X125198095Y-88624580D02*
X125245714Y-88529342D01*
X125245714Y-88529342D02*
X125245714Y-88291247D01*
X125245714Y-88291247D02*
X125198095Y-88196009D01*
X125198095Y-88196009D02*
X125150476Y-88148390D01*
X125150476Y-88148390D02*
X125055238Y-88100771D01*
X125055238Y-88100771D02*
X124864762Y-88100771D01*
X124864762Y-88100771D02*
X124769524Y-88148390D01*
X124769524Y-88148390D02*
X124721905Y-88196009D01*
X124721905Y-88196009D02*
X124674286Y-88291247D01*
X97091666Y-71686009D02*
X97234523Y-71733628D01*
X97234523Y-71733628D02*
X97282142Y-71781247D01*
X97282142Y-71781247D02*
X97329761Y-71876485D01*
X97329761Y-71876485D02*
X97329761Y-72019342D01*
X97329761Y-72019342D02*
X97282142Y-72114580D01*
X97282142Y-72114580D02*
X97234523Y-72162200D01*
X97234523Y-72162200D02*
X97139285Y-72209819D01*
X97139285Y-72209819D02*
X96758333Y-72209819D01*
X96758333Y-72209819D02*
X96758333Y-71209819D01*
X96758333Y-71209819D02*
X97091666Y-71209819D01*
X97091666Y-71209819D02*
X97186904Y-71257438D01*
X97186904Y-71257438D02*
X97234523Y-71305057D01*
X97234523Y-71305057D02*
X97282142Y-71400295D01*
X97282142Y-71400295D02*
X97282142Y-71495533D01*
X97282142Y-71495533D02*
X97234523Y-71590771D01*
X97234523Y-71590771D02*
X97186904Y-71638390D01*
X97186904Y-71638390D02*
X97091666Y-71686009D01*
X97091666Y-71686009D02*
X96758333Y-71686009D01*
X97710714Y-71924104D02*
X98186904Y-71924104D01*
X97615476Y-72209819D02*
X97948809Y-71209819D01*
X97948809Y-71209819D02*
X98282142Y-72209819D01*
X99186904Y-72209819D02*
X98853571Y-71733628D01*
X98615476Y-72209819D02*
X98615476Y-71209819D01*
X98615476Y-71209819D02*
X98996428Y-71209819D01*
X98996428Y-71209819D02*
X99091666Y-71257438D01*
X99091666Y-71257438D02*
X99139285Y-71305057D01*
X99139285Y-71305057D02*
X99186904Y-71400295D01*
X99186904Y-71400295D02*
X99186904Y-71543152D01*
X99186904Y-71543152D02*
X99139285Y-71638390D01*
X99139285Y-71638390D02*
X99091666Y-71686009D01*
X99091666Y-71686009D02*
X98996428Y-71733628D01*
X98996428Y-71733628D02*
X98615476Y-71733628D01*
X100044047Y-71543152D02*
X100044047Y-72209819D01*
X99805952Y-71162200D02*
X99567857Y-71876485D01*
X99567857Y-71876485D02*
X100186904Y-71876485D01*
X67778333Y-73479819D02*
X67445000Y-73003628D01*
X67206905Y-73479819D02*
X67206905Y-72479819D01*
X67206905Y-72479819D02*
X67587857Y-72479819D01*
X67587857Y-72479819D02*
X67683095Y-72527438D01*
X67683095Y-72527438D02*
X67730714Y-72575057D01*
X67730714Y-72575057D02*
X67778333Y-72670295D01*
X67778333Y-72670295D02*
X67778333Y-72813152D01*
X67778333Y-72813152D02*
X67730714Y-72908390D01*
X67730714Y-72908390D02*
X67683095Y-72956009D01*
X67683095Y-72956009D02*
X67587857Y-73003628D01*
X67587857Y-73003628D02*
X67206905Y-73003628D01*
X68111667Y-72479819D02*
X68730714Y-72479819D01*
X68730714Y-72479819D02*
X68397381Y-72860771D01*
X68397381Y-72860771D02*
X68540238Y-72860771D01*
X68540238Y-72860771D02*
X68635476Y-72908390D01*
X68635476Y-72908390D02*
X68683095Y-72956009D01*
X68683095Y-72956009D02*
X68730714Y-73051247D01*
X68730714Y-73051247D02*
X68730714Y-73289342D01*
X68730714Y-73289342D02*
X68683095Y-73384580D01*
X68683095Y-73384580D02*
X68635476Y-73432200D01*
X68635476Y-73432200D02*
X68540238Y-73479819D01*
X68540238Y-73479819D02*
X68254524Y-73479819D01*
X68254524Y-73479819D02*
X68159286Y-73432200D01*
X68159286Y-73432200D02*
X68111667Y-73384580D01*
X97091666Y-57716009D02*
X97234523Y-57763628D01*
X97234523Y-57763628D02*
X97282142Y-57811247D01*
X97282142Y-57811247D02*
X97329761Y-57906485D01*
X97329761Y-57906485D02*
X97329761Y-58049342D01*
X97329761Y-58049342D02*
X97282142Y-58144580D01*
X97282142Y-58144580D02*
X97234523Y-58192200D01*
X97234523Y-58192200D02*
X97139285Y-58239819D01*
X97139285Y-58239819D02*
X96758333Y-58239819D01*
X96758333Y-58239819D02*
X96758333Y-57239819D01*
X96758333Y-57239819D02*
X97091666Y-57239819D01*
X97091666Y-57239819D02*
X97186904Y-57287438D01*
X97186904Y-57287438D02*
X97234523Y-57335057D01*
X97234523Y-57335057D02*
X97282142Y-57430295D01*
X97282142Y-57430295D02*
X97282142Y-57525533D01*
X97282142Y-57525533D02*
X97234523Y-57620771D01*
X97234523Y-57620771D02*
X97186904Y-57668390D01*
X97186904Y-57668390D02*
X97091666Y-57716009D01*
X97091666Y-57716009D02*
X96758333Y-57716009D01*
X97710714Y-57954104D02*
X98186904Y-57954104D01*
X97615476Y-58239819D02*
X97948809Y-57239819D01*
X97948809Y-57239819D02*
X98282142Y-58239819D01*
X99186904Y-58239819D02*
X98853571Y-57763628D01*
X98615476Y-58239819D02*
X98615476Y-57239819D01*
X98615476Y-57239819D02*
X98996428Y-57239819D01*
X98996428Y-57239819D02*
X99091666Y-57287438D01*
X99091666Y-57287438D02*
X99139285Y-57335057D01*
X99139285Y-57335057D02*
X99186904Y-57430295D01*
X99186904Y-57430295D02*
X99186904Y-57573152D01*
X99186904Y-57573152D02*
X99139285Y-57668390D01*
X99139285Y-57668390D02*
X99091666Y-57716009D01*
X99091666Y-57716009D02*
X98996428Y-57763628D01*
X98996428Y-57763628D02*
X98615476Y-57763628D01*
X99567857Y-57335057D02*
X99615476Y-57287438D01*
X99615476Y-57287438D02*
X99710714Y-57239819D01*
X99710714Y-57239819D02*
X99948809Y-57239819D01*
X99948809Y-57239819D02*
X100044047Y-57287438D01*
X100044047Y-57287438D02*
X100091666Y-57335057D01*
X100091666Y-57335057D02*
X100139285Y-57430295D01*
X100139285Y-57430295D02*
X100139285Y-57525533D01*
X100139285Y-57525533D02*
X100091666Y-57668390D01*
X100091666Y-57668390D02*
X99520238Y-58239819D01*
X99520238Y-58239819D02*
X100139285Y-58239819D01*
X71691666Y-57716009D02*
X71834523Y-57763628D01*
X71834523Y-57763628D02*
X71882142Y-57811247D01*
X71882142Y-57811247D02*
X71929761Y-57906485D01*
X71929761Y-57906485D02*
X71929761Y-58049342D01*
X71929761Y-58049342D02*
X71882142Y-58144580D01*
X71882142Y-58144580D02*
X71834523Y-58192200D01*
X71834523Y-58192200D02*
X71739285Y-58239819D01*
X71739285Y-58239819D02*
X71358333Y-58239819D01*
X71358333Y-58239819D02*
X71358333Y-57239819D01*
X71358333Y-57239819D02*
X71691666Y-57239819D01*
X71691666Y-57239819D02*
X71786904Y-57287438D01*
X71786904Y-57287438D02*
X71834523Y-57335057D01*
X71834523Y-57335057D02*
X71882142Y-57430295D01*
X71882142Y-57430295D02*
X71882142Y-57525533D01*
X71882142Y-57525533D02*
X71834523Y-57620771D01*
X71834523Y-57620771D02*
X71786904Y-57668390D01*
X71786904Y-57668390D02*
X71691666Y-57716009D01*
X71691666Y-57716009D02*
X71358333Y-57716009D01*
X72310714Y-57954104D02*
X72786904Y-57954104D01*
X72215476Y-58239819D02*
X72548809Y-57239819D01*
X72548809Y-57239819D02*
X72882142Y-58239819D01*
X73786904Y-58239819D02*
X73453571Y-57763628D01*
X73215476Y-58239819D02*
X73215476Y-57239819D01*
X73215476Y-57239819D02*
X73596428Y-57239819D01*
X73596428Y-57239819D02*
X73691666Y-57287438D01*
X73691666Y-57287438D02*
X73739285Y-57335057D01*
X73739285Y-57335057D02*
X73786904Y-57430295D01*
X73786904Y-57430295D02*
X73786904Y-57573152D01*
X73786904Y-57573152D02*
X73739285Y-57668390D01*
X73739285Y-57668390D02*
X73691666Y-57716009D01*
X73691666Y-57716009D02*
X73596428Y-57763628D01*
X73596428Y-57763628D02*
X73215476Y-57763628D01*
X74739285Y-58239819D02*
X74167857Y-58239819D01*
X74453571Y-58239819D02*
X74453571Y-57239819D01*
X74453571Y-57239819D02*
X74358333Y-57382676D01*
X74358333Y-57382676D02*
X74263095Y-57477914D01*
X74263095Y-57477914D02*
X74167857Y-57525533D01*
D10*
X105677673Y-39517746D02*
X105606245Y-39577270D01*
X105606245Y-39577270D02*
X105391959Y-39636793D01*
X105391959Y-39636793D02*
X105249102Y-39636793D01*
X105249102Y-39636793D02*
X105034816Y-39577270D01*
X105034816Y-39577270D02*
X104891959Y-39458222D01*
X104891959Y-39458222D02*
X104820530Y-39339174D01*
X104820530Y-39339174D02*
X104749102Y-39101079D01*
X104749102Y-39101079D02*
X104749102Y-38922508D01*
X104749102Y-38922508D02*
X104820530Y-38684412D01*
X104820530Y-38684412D02*
X104891959Y-38565365D01*
X104891959Y-38565365D02*
X105034816Y-38446317D01*
X105034816Y-38446317D02*
X105249102Y-38386793D01*
X105249102Y-38386793D02*
X105391959Y-38386793D01*
X105391959Y-38386793D02*
X105606245Y-38446317D01*
X105606245Y-38446317D02*
X105677673Y-38505841D01*
X106320530Y-39636793D02*
X106320530Y-38386793D01*
X106320530Y-38386793D02*
X107177673Y-39636793D01*
X107177673Y-39636793D02*
X107177673Y-38386793D01*
X107820531Y-38505841D02*
X107891959Y-38446317D01*
X107891959Y-38446317D02*
X108034817Y-38386793D01*
X108034817Y-38386793D02*
X108391959Y-38386793D01*
X108391959Y-38386793D02*
X108534817Y-38446317D01*
X108534817Y-38446317D02*
X108606245Y-38505841D01*
X108606245Y-38505841D02*
X108677674Y-38624889D01*
X108677674Y-38624889D02*
X108677674Y-38743936D01*
X108677674Y-38743936D02*
X108606245Y-38922508D01*
X108606245Y-38922508D02*
X107749102Y-39636793D01*
X107749102Y-39636793D02*
X108677674Y-39636793D01*
X96322518Y-37655543D02*
X96036803Y-37655543D01*
X96036803Y-37655543D02*
X95893946Y-37715067D01*
X95893946Y-37715067D02*
X95822518Y-37774591D01*
X95822518Y-37774591D02*
X95679660Y-37953162D01*
X95679660Y-37953162D02*
X95608232Y-38191258D01*
X95608232Y-38191258D02*
X95608232Y-38667448D01*
X95608232Y-38667448D02*
X95679660Y-38786496D01*
X95679660Y-38786496D02*
X95751089Y-38846020D01*
X95751089Y-38846020D02*
X95893946Y-38905543D01*
X95893946Y-38905543D02*
X96179660Y-38905543D01*
X96179660Y-38905543D02*
X96322518Y-38846020D01*
X96322518Y-38846020D02*
X96393946Y-38786496D01*
X96393946Y-38786496D02*
X96465375Y-38667448D01*
X96465375Y-38667448D02*
X96465375Y-38369829D01*
X96465375Y-38369829D02*
X96393946Y-38250781D01*
X96393946Y-38250781D02*
X96322518Y-38191258D01*
X96322518Y-38191258D02*
X96179660Y-38131734D01*
X96179660Y-38131734D02*
X95893946Y-38131734D01*
X95893946Y-38131734D02*
X95751089Y-38191258D01*
X95751089Y-38191258D02*
X95679660Y-38250781D01*
X95679660Y-38250781D02*
X95608232Y-38369829D01*
X118055375Y-38905543D02*
X117198232Y-38905543D01*
X117626803Y-38905543D02*
X117626803Y-37655543D01*
X117626803Y-37655543D02*
X117483946Y-37834115D01*
X117483946Y-37834115D02*
X117341089Y-37953162D01*
X117341089Y-37953162D02*
X117198232Y-38012686D01*
D13*
X67778333Y-88719819D02*
X67445000Y-88243628D01*
X67206905Y-88719819D02*
X67206905Y-87719819D01*
X67206905Y-87719819D02*
X67587857Y-87719819D01*
X67587857Y-87719819D02*
X67683095Y-87767438D01*
X67683095Y-87767438D02*
X67730714Y-87815057D01*
X67730714Y-87815057D02*
X67778333Y-87910295D01*
X67778333Y-87910295D02*
X67778333Y-88053152D01*
X67778333Y-88053152D02*
X67730714Y-88148390D01*
X67730714Y-88148390D02*
X67683095Y-88196009D01*
X67683095Y-88196009D02*
X67587857Y-88243628D01*
X67587857Y-88243628D02*
X67206905Y-88243628D01*
X68683095Y-87719819D02*
X68206905Y-87719819D01*
X68206905Y-87719819D02*
X68159286Y-88196009D01*
X68159286Y-88196009D02*
X68206905Y-88148390D01*
X68206905Y-88148390D02*
X68302143Y-88100771D01*
X68302143Y-88100771D02*
X68540238Y-88100771D01*
X68540238Y-88100771D02*
X68635476Y-88148390D01*
X68635476Y-88148390D02*
X68683095Y-88196009D01*
X68683095Y-88196009D02*
X68730714Y-88291247D01*
X68730714Y-88291247D02*
X68730714Y-88529342D01*
X68730714Y-88529342D02*
X68683095Y-88624580D01*
X68683095Y-88624580D02*
X68635476Y-88672200D01*
X68635476Y-88672200D02*
X68540238Y-88719819D01*
X68540238Y-88719819D02*
X68302143Y-88719819D01*
X68302143Y-88719819D02*
X68206905Y-88672200D01*
X68206905Y-88672200D02*
X68159286Y-88624580D01*
X97091666Y-85656009D02*
X97234523Y-85703628D01*
X97234523Y-85703628D02*
X97282142Y-85751247D01*
X97282142Y-85751247D02*
X97329761Y-85846485D01*
X97329761Y-85846485D02*
X97329761Y-85989342D01*
X97329761Y-85989342D02*
X97282142Y-86084580D01*
X97282142Y-86084580D02*
X97234523Y-86132200D01*
X97234523Y-86132200D02*
X97139285Y-86179819D01*
X97139285Y-86179819D02*
X96758333Y-86179819D01*
X96758333Y-86179819D02*
X96758333Y-85179819D01*
X96758333Y-85179819D02*
X97091666Y-85179819D01*
X97091666Y-85179819D02*
X97186904Y-85227438D01*
X97186904Y-85227438D02*
X97234523Y-85275057D01*
X97234523Y-85275057D02*
X97282142Y-85370295D01*
X97282142Y-85370295D02*
X97282142Y-85465533D01*
X97282142Y-85465533D02*
X97234523Y-85560771D01*
X97234523Y-85560771D02*
X97186904Y-85608390D01*
X97186904Y-85608390D02*
X97091666Y-85656009D01*
X97091666Y-85656009D02*
X96758333Y-85656009D01*
X97710714Y-85894104D02*
X98186904Y-85894104D01*
X97615476Y-86179819D02*
X97948809Y-85179819D01*
X97948809Y-85179819D02*
X98282142Y-86179819D01*
X99186904Y-86179819D02*
X98853571Y-85703628D01*
X98615476Y-86179819D02*
X98615476Y-85179819D01*
X98615476Y-85179819D02*
X98996428Y-85179819D01*
X98996428Y-85179819D02*
X99091666Y-85227438D01*
X99091666Y-85227438D02*
X99139285Y-85275057D01*
X99139285Y-85275057D02*
X99186904Y-85370295D01*
X99186904Y-85370295D02*
X99186904Y-85513152D01*
X99186904Y-85513152D02*
X99139285Y-85608390D01*
X99139285Y-85608390D02*
X99091666Y-85656009D01*
X99091666Y-85656009D02*
X98996428Y-85703628D01*
X98996428Y-85703628D02*
X98615476Y-85703628D01*
X100044047Y-85179819D02*
X99853571Y-85179819D01*
X99853571Y-85179819D02*
X99758333Y-85227438D01*
X99758333Y-85227438D02*
X99710714Y-85275057D01*
X99710714Y-85275057D02*
X99615476Y-85417914D01*
X99615476Y-85417914D02*
X99567857Y-85608390D01*
X99567857Y-85608390D02*
X99567857Y-85989342D01*
X99567857Y-85989342D02*
X99615476Y-86084580D01*
X99615476Y-86084580D02*
X99663095Y-86132200D01*
X99663095Y-86132200D02*
X99758333Y-86179819D01*
X99758333Y-86179819D02*
X99948809Y-86179819D01*
X99948809Y-86179819D02*
X100044047Y-86132200D01*
X100044047Y-86132200D02*
X100091666Y-86084580D01*
X100091666Y-86084580D02*
X100139285Y-85989342D01*
X100139285Y-85989342D02*
X100139285Y-85751247D01*
X100139285Y-85751247D02*
X100091666Y-85656009D01*
X100091666Y-85656009D02*
X100044047Y-85608390D01*
X100044047Y-85608390D02*
X99948809Y-85560771D01*
X99948809Y-85560771D02*
X99758333Y-85560771D01*
X99758333Y-85560771D02*
X99663095Y-85608390D01*
X99663095Y-85608390D02*
X99615476Y-85656009D01*
X99615476Y-85656009D02*
X99567857Y-85751247D01*
X71691666Y-71686009D02*
X71834523Y-71733628D01*
X71834523Y-71733628D02*
X71882142Y-71781247D01*
X71882142Y-71781247D02*
X71929761Y-71876485D01*
X71929761Y-71876485D02*
X71929761Y-72019342D01*
X71929761Y-72019342D02*
X71882142Y-72114580D01*
X71882142Y-72114580D02*
X71834523Y-72162200D01*
X71834523Y-72162200D02*
X71739285Y-72209819D01*
X71739285Y-72209819D02*
X71358333Y-72209819D01*
X71358333Y-72209819D02*
X71358333Y-71209819D01*
X71358333Y-71209819D02*
X71691666Y-71209819D01*
X71691666Y-71209819D02*
X71786904Y-71257438D01*
X71786904Y-71257438D02*
X71834523Y-71305057D01*
X71834523Y-71305057D02*
X71882142Y-71400295D01*
X71882142Y-71400295D02*
X71882142Y-71495533D01*
X71882142Y-71495533D02*
X71834523Y-71590771D01*
X71834523Y-71590771D02*
X71786904Y-71638390D01*
X71786904Y-71638390D02*
X71691666Y-71686009D01*
X71691666Y-71686009D02*
X71358333Y-71686009D01*
X72310714Y-71924104D02*
X72786904Y-71924104D01*
X72215476Y-72209819D02*
X72548809Y-71209819D01*
X72548809Y-71209819D02*
X72882142Y-72209819D01*
X73786904Y-72209819D02*
X73453571Y-71733628D01*
X73215476Y-72209819D02*
X73215476Y-71209819D01*
X73215476Y-71209819D02*
X73596428Y-71209819D01*
X73596428Y-71209819D02*
X73691666Y-71257438D01*
X73691666Y-71257438D02*
X73739285Y-71305057D01*
X73739285Y-71305057D02*
X73786904Y-71400295D01*
X73786904Y-71400295D02*
X73786904Y-71543152D01*
X73786904Y-71543152D02*
X73739285Y-71638390D01*
X73739285Y-71638390D02*
X73691666Y-71686009D01*
X73691666Y-71686009D02*
X73596428Y-71733628D01*
X73596428Y-71733628D02*
X73215476Y-71733628D01*
X74120238Y-71209819D02*
X74739285Y-71209819D01*
X74739285Y-71209819D02*
X74405952Y-71590771D01*
X74405952Y-71590771D02*
X74548809Y-71590771D01*
X74548809Y-71590771D02*
X74644047Y-71638390D01*
X74644047Y-71638390D02*
X74691666Y-71686009D01*
X74691666Y-71686009D02*
X74739285Y-71781247D01*
X74739285Y-71781247D02*
X74739285Y-72019342D01*
X74739285Y-72019342D02*
X74691666Y-72114580D01*
X74691666Y-72114580D02*
X74644047Y-72162200D01*
X74644047Y-72162200D02*
X74548809Y-72209819D01*
X74548809Y-72209819D02*
X74263095Y-72209819D01*
X74263095Y-72209819D02*
X74167857Y-72162200D01*
X74167857Y-72162200D02*
X74120238Y-72114580D01*
X124293333Y-59509819D02*
X123960000Y-59033628D01*
X123721905Y-59509819D02*
X123721905Y-58509819D01*
X123721905Y-58509819D02*
X124102857Y-58509819D01*
X124102857Y-58509819D02*
X124198095Y-58557438D01*
X124198095Y-58557438D02*
X124245714Y-58605057D01*
X124245714Y-58605057D02*
X124293333Y-58700295D01*
X124293333Y-58700295D02*
X124293333Y-58843152D01*
X124293333Y-58843152D02*
X124245714Y-58938390D01*
X124245714Y-58938390D02*
X124198095Y-58986009D01*
X124198095Y-58986009D02*
X124102857Y-59033628D01*
X124102857Y-59033628D02*
X123721905Y-59033628D01*
X124674286Y-58605057D02*
X124721905Y-58557438D01*
X124721905Y-58557438D02*
X124817143Y-58509819D01*
X124817143Y-58509819D02*
X125055238Y-58509819D01*
X125055238Y-58509819D02*
X125150476Y-58557438D01*
X125150476Y-58557438D02*
X125198095Y-58605057D01*
X125198095Y-58605057D02*
X125245714Y-58700295D01*
X125245714Y-58700295D02*
X125245714Y-58795533D01*
X125245714Y-58795533D02*
X125198095Y-58938390D01*
X125198095Y-58938390D02*
X124626667Y-59509819D01*
X124626667Y-59509819D02*
X125245714Y-59509819D01*
X75763572Y-108842557D02*
X76477858Y-108842557D01*
X75620715Y-109271128D02*
X76120715Y-107771128D01*
X76120715Y-107771128D02*
X76620715Y-109271128D01*
X77906429Y-109271128D02*
X77049286Y-109271128D01*
X77477857Y-109271128D02*
X77477857Y-107771128D01*
X77477857Y-107771128D02*
X77335000Y-107985414D01*
X77335000Y-107985414D02*
X77192143Y-108128271D01*
X77192143Y-108128271D02*
X77049286Y-108199700D01*
X88511904Y-99239104D02*
X88988094Y-99239104D01*
X88416666Y-99524819D02*
X88749999Y-98524819D01*
X88749999Y-98524819D02*
X89083332Y-99524819D01*
X89416666Y-99524819D02*
X89416666Y-98858152D01*
X89416666Y-99048628D02*
X89464285Y-98953390D01*
X89464285Y-98953390D02*
X89511904Y-98905771D01*
X89511904Y-98905771D02*
X89607142Y-98858152D01*
X89607142Y-98858152D02*
X89702380Y-98858152D01*
X90464285Y-99524819D02*
X90464285Y-98524819D01*
X90464285Y-99477200D02*
X90369047Y-99524819D01*
X90369047Y-99524819D02*
X90178571Y-99524819D01*
X90178571Y-99524819D02*
X90083333Y-99477200D01*
X90083333Y-99477200D02*
X90035714Y-99429580D01*
X90035714Y-99429580D02*
X89988095Y-99334342D01*
X89988095Y-99334342D02*
X89988095Y-99048628D01*
X89988095Y-99048628D02*
X90035714Y-98953390D01*
X90035714Y-98953390D02*
X90083333Y-98905771D01*
X90083333Y-98905771D02*
X90178571Y-98858152D01*
X90178571Y-98858152D02*
X90369047Y-98858152D01*
X90369047Y-98858152D02*
X90464285Y-98905771D01*
X91369047Y-98858152D02*
X91369047Y-99524819D01*
X90940476Y-98858152D02*
X90940476Y-99381961D01*
X90940476Y-99381961D02*
X90988095Y-99477200D01*
X90988095Y-99477200D02*
X91083333Y-99524819D01*
X91083333Y-99524819D02*
X91226190Y-99524819D01*
X91226190Y-99524819D02*
X91321428Y-99477200D01*
X91321428Y-99477200D02*
X91369047Y-99429580D01*
X91845238Y-99524819D02*
X91845238Y-98858152D01*
X91845238Y-98524819D02*
X91797619Y-98572438D01*
X91797619Y-98572438D02*
X91845238Y-98620057D01*
X91845238Y-98620057D02*
X91892857Y-98572438D01*
X91892857Y-98572438D02*
X91845238Y-98524819D01*
X91845238Y-98524819D02*
X91845238Y-98620057D01*
X92321428Y-98858152D02*
X92321428Y-99524819D01*
X92321428Y-98953390D02*
X92369047Y-98905771D01*
X92369047Y-98905771D02*
X92464285Y-98858152D01*
X92464285Y-98858152D02*
X92607142Y-98858152D01*
X92607142Y-98858152D02*
X92702380Y-98905771D01*
X92702380Y-98905771D02*
X92749999Y-99001009D01*
X92749999Y-99001009D02*
X92749999Y-99524819D01*
X93369047Y-99524819D02*
X93273809Y-99477200D01*
X93273809Y-99477200D02*
X93226190Y-99429580D01*
X93226190Y-99429580D02*
X93178571Y-99334342D01*
X93178571Y-99334342D02*
X93178571Y-99048628D01*
X93178571Y-99048628D02*
X93226190Y-98953390D01*
X93226190Y-98953390D02*
X93273809Y-98905771D01*
X93273809Y-98905771D02*
X93369047Y-98858152D01*
X93369047Y-98858152D02*
X93511904Y-98858152D01*
X93511904Y-98858152D02*
X93607142Y-98905771D01*
X93607142Y-98905771D02*
X93654761Y-98953390D01*
X93654761Y-98953390D02*
X93702380Y-99048628D01*
X93702380Y-99048628D02*
X93702380Y-99334342D01*
X93702380Y-99334342D02*
X93654761Y-99429580D01*
X93654761Y-99429580D02*
X93607142Y-99477200D01*
X93607142Y-99477200D02*
X93511904Y-99524819D01*
X93511904Y-99524819D02*
X93369047Y-99524819D01*
X93892857Y-99620057D02*
X94654761Y-99620057D01*
X94892857Y-99524819D02*
X94892857Y-98524819D01*
X94892857Y-98524819D02*
X95464285Y-99524819D01*
X95464285Y-99524819D02*
X95464285Y-98524819D01*
X96369047Y-99524819D02*
X96369047Y-99001009D01*
X96369047Y-99001009D02*
X96321428Y-98905771D01*
X96321428Y-98905771D02*
X96226190Y-98858152D01*
X96226190Y-98858152D02*
X96035714Y-98858152D01*
X96035714Y-98858152D02*
X95940476Y-98905771D01*
X96369047Y-99477200D02*
X96273809Y-99524819D01*
X96273809Y-99524819D02*
X96035714Y-99524819D01*
X96035714Y-99524819D02*
X95940476Y-99477200D01*
X95940476Y-99477200D02*
X95892857Y-99381961D01*
X95892857Y-99381961D02*
X95892857Y-99286723D01*
X95892857Y-99286723D02*
X95940476Y-99191485D01*
X95940476Y-99191485D02*
X96035714Y-99143866D01*
X96035714Y-99143866D02*
X96273809Y-99143866D01*
X96273809Y-99143866D02*
X96369047Y-99096247D01*
X96845238Y-98858152D02*
X96845238Y-99524819D01*
X96845238Y-98953390D02*
X96892857Y-98905771D01*
X96892857Y-98905771D02*
X96988095Y-98858152D01*
X96988095Y-98858152D02*
X97130952Y-98858152D01*
X97130952Y-98858152D02*
X97226190Y-98905771D01*
X97226190Y-98905771D02*
X97273809Y-99001009D01*
X97273809Y-99001009D02*
X97273809Y-99524819D01*
X97892857Y-99524819D02*
X97797619Y-99477200D01*
X97797619Y-99477200D02*
X97750000Y-99429580D01*
X97750000Y-99429580D02*
X97702381Y-99334342D01*
X97702381Y-99334342D02*
X97702381Y-99048628D01*
X97702381Y-99048628D02*
X97750000Y-98953390D01*
X97750000Y-98953390D02*
X97797619Y-98905771D01*
X97797619Y-98905771D02*
X97892857Y-98858152D01*
X97892857Y-98858152D02*
X98035714Y-98858152D01*
X98035714Y-98858152D02*
X98130952Y-98905771D01*
X98130952Y-98905771D02*
X98178571Y-98953390D01*
X98178571Y-98953390D02*
X98226190Y-99048628D01*
X98226190Y-99048628D02*
X98226190Y-99334342D01*
X98226190Y-99334342D02*
X98178571Y-99429580D01*
X98178571Y-99429580D02*
X98130952Y-99477200D01*
X98130952Y-99477200D02*
X98035714Y-99524819D01*
X98035714Y-99524819D02*
X97892857Y-99524819D01*
X98416667Y-99620057D02*
X99178571Y-99620057D01*
X99321429Y-98858152D02*
X99559524Y-99524819D01*
X99559524Y-99524819D02*
X99797619Y-98858152D01*
X100083334Y-98524819D02*
X100702381Y-98524819D01*
X100702381Y-98524819D02*
X100369048Y-98905771D01*
X100369048Y-98905771D02*
X100511905Y-98905771D01*
X100511905Y-98905771D02*
X100607143Y-98953390D01*
X100607143Y-98953390D02*
X100654762Y-99001009D01*
X100654762Y-99001009D02*
X100702381Y-99096247D01*
X100702381Y-99096247D02*
X100702381Y-99334342D01*
X100702381Y-99334342D02*
X100654762Y-99429580D01*
X100654762Y-99429580D02*
X100607143Y-99477200D01*
X100607143Y-99477200D02*
X100511905Y-99524819D01*
X100511905Y-99524819D02*
X100226191Y-99524819D01*
X100226191Y-99524819D02*
X100130953Y-99477200D01*
X100130953Y-99477200D02*
X100083334Y-99429580D01*
X101130953Y-99429580D02*
X101178572Y-99477200D01*
X101178572Y-99477200D02*
X101130953Y-99524819D01*
X101130953Y-99524819D02*
X101083334Y-99477200D01*
X101083334Y-99477200D02*
X101130953Y-99429580D01*
X101130953Y-99429580D02*
X101130953Y-99524819D01*
X101511905Y-99524819D02*
X102035714Y-98858152D01*
X101511905Y-98858152D02*
X102035714Y-99524819D01*
X79285180Y-96538095D02*
X78475657Y-96538095D01*
X78475657Y-96538095D02*
X78380419Y-96585714D01*
X78380419Y-96585714D02*
X78332800Y-96633333D01*
X78332800Y-96633333D02*
X78285180Y-96728571D01*
X78285180Y-96728571D02*
X78285180Y-96919047D01*
X78285180Y-96919047D02*
X78332800Y-97014285D01*
X78332800Y-97014285D02*
X78380419Y-97061904D01*
X78380419Y-97061904D02*
X78475657Y-97109523D01*
X78475657Y-97109523D02*
X79285180Y-97109523D01*
X78332800Y-97538095D02*
X78285180Y-97680952D01*
X78285180Y-97680952D02*
X78285180Y-97919047D01*
X78285180Y-97919047D02*
X78332800Y-98014285D01*
X78332800Y-98014285D02*
X78380419Y-98061904D01*
X78380419Y-98061904D02*
X78475657Y-98109523D01*
X78475657Y-98109523D02*
X78570895Y-98109523D01*
X78570895Y-98109523D02*
X78666133Y-98061904D01*
X78666133Y-98061904D02*
X78713752Y-98014285D01*
X78713752Y-98014285D02*
X78761371Y-97919047D01*
X78761371Y-97919047D02*
X78808990Y-97728571D01*
X78808990Y-97728571D02*
X78856609Y-97633333D01*
X78856609Y-97633333D02*
X78904228Y-97585714D01*
X78904228Y-97585714D02*
X78999466Y-97538095D01*
X78999466Y-97538095D02*
X79094704Y-97538095D01*
X79094704Y-97538095D02*
X79189942Y-97585714D01*
X79189942Y-97585714D02*
X79237561Y-97633333D01*
X79237561Y-97633333D02*
X79285180Y-97728571D01*
X79285180Y-97728571D02*
X79285180Y-97966666D01*
X79285180Y-97966666D02*
X79237561Y-98109523D01*
X78808990Y-98871428D02*
X78761371Y-99014285D01*
X78761371Y-99014285D02*
X78713752Y-99061904D01*
X78713752Y-99061904D02*
X78618514Y-99109523D01*
X78618514Y-99109523D02*
X78475657Y-99109523D01*
X78475657Y-99109523D02*
X78380419Y-99061904D01*
X78380419Y-99061904D02*
X78332800Y-99014285D01*
X78332800Y-99014285D02*
X78285180Y-98919047D01*
X78285180Y-98919047D02*
X78285180Y-98538095D01*
X78285180Y-98538095D02*
X79285180Y-98538095D01*
X79285180Y-98538095D02*
X79285180Y-98871428D01*
X79285180Y-98871428D02*
X79237561Y-98966666D01*
X79237561Y-98966666D02*
X79189942Y-99014285D01*
X79189942Y-99014285D02*
X79094704Y-99061904D01*
X79094704Y-99061904D02*
X78999466Y-99061904D01*
X78999466Y-99061904D02*
X78904228Y-99014285D01*
X78904228Y-99014285D02*
X78856609Y-98966666D01*
X78856609Y-98966666D02*
X78808990Y-98871428D01*
X78808990Y-98871428D02*
X78808990Y-98538095D01*
X67778333Y-59509819D02*
X67445000Y-59033628D01*
X67206905Y-59509819D02*
X67206905Y-58509819D01*
X67206905Y-58509819D02*
X67587857Y-58509819D01*
X67587857Y-58509819D02*
X67683095Y-58557438D01*
X67683095Y-58557438D02*
X67730714Y-58605057D01*
X67730714Y-58605057D02*
X67778333Y-58700295D01*
X67778333Y-58700295D02*
X67778333Y-58843152D01*
X67778333Y-58843152D02*
X67730714Y-58938390D01*
X67730714Y-58938390D02*
X67683095Y-58986009D01*
X67683095Y-58986009D02*
X67587857Y-59033628D01*
X67587857Y-59033628D02*
X67206905Y-59033628D01*
X68730714Y-59509819D02*
X68159286Y-59509819D01*
X68445000Y-59509819D02*
X68445000Y-58509819D01*
X68445000Y-58509819D02*
X68349762Y-58652676D01*
X68349762Y-58652676D02*
X68254524Y-58747914D01*
X68254524Y-58747914D02*
X68159286Y-58795533D01*
D10*
X69449285Y-41721226D02*
X69377857Y-41780750D01*
X69377857Y-41780750D02*
X69163571Y-41840273D01*
X69163571Y-41840273D02*
X69020714Y-41840273D01*
X69020714Y-41840273D02*
X68806428Y-41780750D01*
X68806428Y-41780750D02*
X68663571Y-41661702D01*
X68663571Y-41661702D02*
X68592142Y-41542654D01*
X68592142Y-41542654D02*
X68520714Y-41304559D01*
X68520714Y-41304559D02*
X68520714Y-41125988D01*
X68520714Y-41125988D02*
X68592142Y-40887892D01*
X68592142Y-40887892D02*
X68663571Y-40768845D01*
X68663571Y-40768845D02*
X68806428Y-40649797D01*
X68806428Y-40649797D02*
X69020714Y-40590273D01*
X69020714Y-40590273D02*
X69163571Y-40590273D01*
X69163571Y-40590273D02*
X69377857Y-40649797D01*
X69377857Y-40649797D02*
X69449285Y-40709321D01*
X70092142Y-41840273D02*
X70092142Y-40590273D01*
X70092142Y-40590273D02*
X70949285Y-41840273D01*
X70949285Y-41840273D02*
X70949285Y-40590273D01*
X71520714Y-40590273D02*
X72449286Y-40590273D01*
X72449286Y-40590273D02*
X71949286Y-41066464D01*
X71949286Y-41066464D02*
X72163571Y-41066464D01*
X72163571Y-41066464D02*
X72306429Y-41125988D01*
X72306429Y-41125988D02*
X72377857Y-41185511D01*
X72377857Y-41185511D02*
X72449286Y-41304559D01*
X72449286Y-41304559D02*
X72449286Y-41602178D01*
X72449286Y-41602178D02*
X72377857Y-41721226D01*
X72377857Y-41721226D02*
X72306429Y-41780750D01*
X72306429Y-41780750D02*
X72163571Y-41840273D01*
X72163571Y-41840273D02*
X71735000Y-41840273D01*
X71735000Y-41840273D02*
X71592143Y-41780750D01*
X71592143Y-41780750D02*
X71520714Y-41721226D01*
D13*
X71691666Y-85656009D02*
X71834523Y-85703628D01*
X71834523Y-85703628D02*
X71882142Y-85751247D01*
X71882142Y-85751247D02*
X71929761Y-85846485D01*
X71929761Y-85846485D02*
X71929761Y-85989342D01*
X71929761Y-85989342D02*
X71882142Y-86084580D01*
X71882142Y-86084580D02*
X71834523Y-86132200D01*
X71834523Y-86132200D02*
X71739285Y-86179819D01*
X71739285Y-86179819D02*
X71358333Y-86179819D01*
X71358333Y-86179819D02*
X71358333Y-85179819D01*
X71358333Y-85179819D02*
X71691666Y-85179819D01*
X71691666Y-85179819D02*
X71786904Y-85227438D01*
X71786904Y-85227438D02*
X71834523Y-85275057D01*
X71834523Y-85275057D02*
X71882142Y-85370295D01*
X71882142Y-85370295D02*
X71882142Y-85465533D01*
X71882142Y-85465533D02*
X71834523Y-85560771D01*
X71834523Y-85560771D02*
X71786904Y-85608390D01*
X71786904Y-85608390D02*
X71691666Y-85656009D01*
X71691666Y-85656009D02*
X71358333Y-85656009D01*
X72310714Y-85894104D02*
X72786904Y-85894104D01*
X72215476Y-86179819D02*
X72548809Y-85179819D01*
X72548809Y-85179819D02*
X72882142Y-86179819D01*
X73786904Y-86179819D02*
X73453571Y-85703628D01*
X73215476Y-86179819D02*
X73215476Y-85179819D01*
X73215476Y-85179819D02*
X73596428Y-85179819D01*
X73596428Y-85179819D02*
X73691666Y-85227438D01*
X73691666Y-85227438D02*
X73739285Y-85275057D01*
X73739285Y-85275057D02*
X73786904Y-85370295D01*
X73786904Y-85370295D02*
X73786904Y-85513152D01*
X73786904Y-85513152D02*
X73739285Y-85608390D01*
X73739285Y-85608390D02*
X73691666Y-85656009D01*
X73691666Y-85656009D02*
X73596428Y-85703628D01*
X73596428Y-85703628D02*
X73215476Y-85703628D01*
X74691666Y-85179819D02*
X74215476Y-85179819D01*
X74215476Y-85179819D02*
X74167857Y-85656009D01*
X74167857Y-85656009D02*
X74215476Y-85608390D01*
X74215476Y-85608390D02*
X74310714Y-85560771D01*
X74310714Y-85560771D02*
X74548809Y-85560771D01*
X74548809Y-85560771D02*
X74644047Y-85608390D01*
X74644047Y-85608390D02*
X74691666Y-85656009D01*
X74691666Y-85656009D02*
X74739285Y-85751247D01*
X74739285Y-85751247D02*
X74739285Y-85989342D01*
X74739285Y-85989342D02*
X74691666Y-86084580D01*
X74691666Y-86084580D02*
X74644047Y-86132200D01*
X74644047Y-86132200D02*
X74548809Y-86179819D01*
X74548809Y-86179819D02*
X74310714Y-86179819D01*
X74310714Y-86179819D02*
X74215476Y-86132200D01*
X74215476Y-86132200D02*
X74167857Y-86084580D01*
D14*
%TO.C,R4*%
X124460000Y-62000000D02*
X124460000Y-62770000D01*
X125830000Y-62770000D02*
X123090000Y-62770000D01*
X123090000Y-62770000D02*
X123090000Y-69310000D01*
X125830000Y-69310000D02*
X125830000Y-62770000D01*
X123090000Y-69310000D02*
X125830000Y-69310000D01*
X124460000Y-70080000D02*
X124460000Y-69310000D01*
%TO.C,R6*%
X124460000Y-77240000D02*
X124460000Y-78010000D01*
X125830000Y-78010000D02*
X123090000Y-78010000D01*
X123090000Y-78010000D02*
X123090000Y-84550000D01*
X125830000Y-84550000D02*
X125830000Y-78010000D01*
X123090000Y-84550000D02*
X125830000Y-84550000D01*
X124460000Y-85320000D02*
X124460000Y-84550000D01*
%TO.C,BAR4*%
X96090000Y-70280000D02*
X97790000Y-70280000D01*
X96380000Y-69990000D02*
X96380000Y-59550000D01*
X122060000Y-69990000D02*
X96380000Y-69990000D01*
X96090000Y-68580000D02*
X96090000Y-70280000D01*
X96380000Y-59550000D02*
X122060000Y-59550000D01*
X122060000Y-59550000D02*
X122060000Y-69990000D01*
%TO.C,R3*%
X68580000Y-62000000D02*
X68580000Y-62770000D01*
X69950000Y-62770000D02*
X67210000Y-62770000D01*
X67210000Y-62770000D02*
X67210000Y-69310000D01*
X69950000Y-69310000D02*
X69950000Y-62770000D01*
X67210000Y-69310000D02*
X69950000Y-69310000D01*
X68580000Y-70080000D02*
X68580000Y-69310000D01*
%TO.C,BAR2*%
X96090000Y-56310000D02*
X97790000Y-56310000D01*
X96380000Y-56020000D02*
X96380000Y-45580000D01*
X122060000Y-56020000D02*
X96380000Y-56020000D01*
X96090000Y-54610000D02*
X96090000Y-56310000D01*
X96380000Y-45580000D02*
X122060000Y-45580000D01*
X122060000Y-45580000D02*
X122060000Y-56020000D01*
%TO.C,BAR1*%
X70690000Y-56310000D02*
X72390000Y-56310000D01*
X70980000Y-56020000D02*
X70980000Y-45580000D01*
X96660000Y-56020000D02*
X70980000Y-56020000D01*
X70690000Y-54610000D02*
X70690000Y-56310000D01*
X70980000Y-45580000D02*
X96660000Y-45580000D01*
X96660000Y-45580000D02*
X96660000Y-56020000D01*
%TO.C,R5*%
X68580000Y-77240000D02*
X68580000Y-78010000D01*
X69950000Y-78010000D02*
X67210000Y-78010000D01*
X67210000Y-78010000D02*
X67210000Y-84550000D01*
X69950000Y-84550000D02*
X69950000Y-78010000D01*
X67210000Y-84550000D02*
X69950000Y-84550000D01*
X68580000Y-85320000D02*
X68580000Y-84550000D01*
%TO.C,BAR6*%
X96090000Y-84250000D02*
X97790000Y-84250000D01*
X96380000Y-83960000D02*
X96380000Y-73520000D01*
X122060000Y-83960000D02*
X96380000Y-83960000D01*
X96090000Y-82550000D02*
X96090000Y-84250000D01*
X96380000Y-73520000D02*
X122060000Y-73520000D01*
X122060000Y-73520000D02*
X122060000Y-83960000D01*
%TO.C,BAR3*%
X70690000Y-70280000D02*
X72390000Y-70280000D01*
X70980000Y-69990000D02*
X70980000Y-59550000D01*
X96660000Y-69990000D02*
X70980000Y-69990000D01*
X70690000Y-68580000D02*
X70690000Y-70280000D01*
X70980000Y-59550000D02*
X96660000Y-59550000D01*
X96660000Y-59550000D02*
X96660000Y-69990000D01*
%TO.C,R2*%
X124460000Y-48030000D02*
X124460000Y-48800000D01*
X125830000Y-48800000D02*
X123090000Y-48800000D01*
X123090000Y-48800000D02*
X123090000Y-55340000D01*
X125830000Y-55340000D02*
X125830000Y-48800000D01*
X123090000Y-55340000D02*
X125830000Y-55340000D01*
X124460000Y-56110000D02*
X124460000Y-55340000D01*
%TO.C,A1*%
X118240000Y-88780000D02*
X115570000Y-88780000D01*
X113030000Y-88780000D02*
X74800000Y-88780000D01*
X74800000Y-88780000D02*
X74800000Y-93860000D01*
X115570000Y-91450000D02*
X115570000Y-88780000D01*
X113030000Y-91450000D02*
X113030000Y-88780000D01*
X113030000Y-91450000D02*
X115570000Y-91450000D01*
X113030000Y-91450000D02*
X77470000Y-91450000D01*
X77470000Y-91450000D02*
X77470000Y-88780000D01*
X82680000Y-93860000D02*
X82680000Y-101740000D01*
X72260000Y-93860000D02*
X82680000Y-93860000D01*
X82680000Y-101740000D02*
X72260000Y-101740000D01*
X72260000Y-101740000D02*
X72260000Y-93860000D01*
X115570000Y-104150000D02*
X77470000Y-104150000D01*
X115570000Y-104150000D02*
X115570000Y-106820000D01*
X77470000Y-104150000D02*
X77470000Y-106820000D01*
X118240000Y-106820000D02*
X118240000Y-88780000D01*
X74800000Y-106820000D02*
X74800000Y-101740000D01*
X74800000Y-106820000D02*
X118240000Y-106820000D01*
%TO.C,R1*%
X68580000Y-48030000D02*
X68580000Y-48800000D01*
X69950000Y-48800000D02*
X67210000Y-48800000D01*
X67210000Y-48800000D02*
X67210000Y-55340000D01*
X69950000Y-55340000D02*
X69950000Y-48800000D01*
X67210000Y-55340000D02*
X69950000Y-55340000D01*
X68580000Y-56110000D02*
X68580000Y-55340000D01*
%TO.C,CN3*%
X84724000Y-28773000D02*
X70724000Y-28773000D01*
X82224000Y-38473000D02*
X84724000Y-38473000D01*
X79624000Y-38473000D02*
X80224000Y-38473000D01*
X75424000Y-38473000D02*
X77624000Y-38473000D01*
X70724000Y-38473000D02*
X73224000Y-38473000D01*
X84724000Y-39373000D02*
X70724000Y-39373000D01*
X70724000Y-39373000D02*
X70724000Y-26973000D01*
X70724000Y-26973000D02*
X84724000Y-26973000D01*
X84724000Y-26973000D02*
X84724000Y-39373000D01*
%TO.C,BAR5*%
X70690000Y-84250000D02*
X72390000Y-84250000D01*
X70980000Y-83960000D02*
X70980000Y-73520000D01*
X96660000Y-83960000D02*
X70980000Y-83960000D01*
X70690000Y-82550000D02*
X70690000Y-84250000D01*
X70980000Y-73520000D02*
X96660000Y-73520000D01*
X96660000Y-73520000D02*
X96660000Y-83960000D01*
%TD*%
M02*
