%TF.GenerationSoftware,KiCad,Pcbnew,7.0.10-7.0.10~ubuntu20.04.1*%
%TF.CreationDate,2024-02-04T15:22:38+01:00*%
%TF.ProjectId,tapeadj,74617065-6164-46a2-9e6b-696361645f70,1.0*%
%TF.SameCoordinates,Original*%
%TF.FileFunction,Copper,L2,Bot*%
%TF.FilePolarity,Positive*%
%FSLAX46Y46*%
G04 Gerber Fmt 4.6, Leading zero omitted, Abs format (unit mm)*
G04 Created by KiCad (PCBNEW 7.0.10-7.0.10~ubuntu20.04.1) date 2024-02-04 15:22:38*
%MOMM*%
%LPD*%
G01*
G04 APERTURE LIST*
G04 Aperture macros list*
%AMRoundRect*
0 Rectangle with rounded corners*
0 $1 Rounding radius*
0 $2 $3 $4 $5 $6 $7 $8 $9 X,Y pos of 4 corners*
0 Add a 4 corners polygon primitive as box body*
4,1,4,$2,$3,$4,$5,$6,$7,$8,$9,$2,$3,0*
0 Add four circle primitives for the rounded corners*
1,1,$1+$1,$2,$3*
1,1,$1+$1,$4,$5*
1,1,$1+$1,$6,$7*
1,1,$1+$1,$8,$9*
0 Add four rect primitives between the rounded corners*
20,1,$1+$1,$2,$3,$4,$5,0*
20,1,$1+$1,$4,$5,$6,$7,0*
20,1,$1+$1,$6,$7,$8,$9,0*
20,1,$1+$1,$8,$9,$2,$3,0*%
%AMOutline5P*
0 Free polygon, 5 corners , with rotation*
0 The origin of the aperture is its center*
0 number of corners: always 5*
0 $1 to $10 corner X, Y*
0 $11 Rotation angle, in degrees counterclockwise*
0 create outline with 5 corners*
4,1,5,$1,$2,$3,$4,$5,$6,$7,$8,$9,$10,$1,$2,$11*%
%AMOutline6P*
0 Free polygon, 6 corners , with rotation*
0 The origin of the aperture is its center*
0 number of corners: always 6*
0 $1 to $12 corner X, Y*
0 $13 Rotation angle, in degrees counterclockwise*
0 create outline with 6 corners*
4,1,6,$1,$2,$3,$4,$5,$6,$7,$8,$9,$10,$11,$12,$1,$2,$13*%
%AMOutline7P*
0 Free polygon, 7 corners , with rotation*
0 The origin of the aperture is its center*
0 number of corners: always 7*
0 $1 to $14 corner X, Y*
0 $15 Rotation angle, in degrees counterclockwise*
0 create outline with 7 corners*
4,1,7,$1,$2,$3,$4,$5,$6,$7,$8,$9,$10,$11,$12,$13,$14,$1,$2,$15*%
%AMOutline8P*
0 Free polygon, 8 corners , with rotation*
0 The origin of the aperture is its center*
0 number of corners: always 8*
0 $1 to $16 corner X, Y*
0 $17 Rotation angle, in degrees counterclockwise*
0 create outline with 8 corners*
4,1,8,$1,$2,$3,$4,$5,$6,$7,$8,$9,$10,$11,$12,$13,$14,$15,$16,$1,$2,$17*%
G04 Aperture macros list end*
%TA.AperFunction,SMDPad,CuDef*%
%ADD10RoundRect,0.625000X-0.625000X-1.875000X0.625000X-1.875000X0.625000X1.875000X-0.625000X1.875000X0*%
%TD*%
%TA.AperFunction,ComponentPad*%
%ADD11C,1.600000*%
%TD*%
%TA.AperFunction,ComponentPad*%
%ADD12O,1.600000X1.600000*%
%TD*%
%TA.AperFunction,ComponentPad*%
%ADD13R,1.800000X4.032000*%
%TD*%
%TA.AperFunction,ComponentPad*%
%ADD14O,1.800000X4.000000*%
%TD*%
%TA.AperFunction,SMDPad,CuDef*%
%ADD15R,2.410000X10.000000*%
%TD*%
%TA.AperFunction,SMDPad,CuDef*%
%ADD16Outline5P,-1.205000X4.156500X-0.361500X5.000000X1.205000X5.000000X1.205000X-5.000000X-1.205000X-5.000000X0.000000*%
%TD*%
%TA.AperFunction,SMDPad,CuDef*%
%ADD17Outline5P,-1.205000X5.000000X0.361500X5.000000X1.205000X4.156500X1.205000X-5.000000X-1.205000X-5.000000X0.000000*%
%TD*%
%TA.AperFunction,ComponentPad*%
%ADD18R,1.600000X1.600000*%
%TD*%
%TA.AperFunction,ComponentPad*%
%ADD19C,1.500000*%
%TD*%
%TA.AperFunction,ViaPad*%
%ADD20C,1.600000*%
%TD*%
%TA.AperFunction,ViaPad*%
%ADD21C,0.800000*%
%TD*%
%TA.AperFunction,Conductor*%
%ADD22C,1.000000*%
%TD*%
%TA.AperFunction,Conductor*%
%ADD23C,0.254000*%
%TD*%
%TA.AperFunction,Conductor*%
%ADD24C,0.250000*%
%TD*%
G04 APERTURE END LIST*
D10*
%TO.P,CN1,A*%
%TO.N,GND*%
X106127556Y-113575170D03*
%TO.P,CN1,B*%
%TO.N,+5V*%
X102167556Y-113575170D03*
%TO.P,CN1,C*%
%TO.N,/CASS_MOTOR*%
X98207556Y-113575170D03*
%TO.P,CN1,D*%
%TO.N,/CASS_RD*%
X94247556Y-113575170D03*
%TO.P,CN1,E*%
%TO.N,/CASS_WRT*%
X90287556Y-113575170D03*
%TO.P,CN1,F*%
%TO.N,/CASS_SENSE*%
X86327556Y-113575170D03*
%TD*%
D11*
%TO.P,R4,1*%
%TO.N,Net-(BAR4-K-Pad11)*%
X124460000Y-60960000D03*
D12*
%TO.P,R4,2*%
%TO.N,/BAR4*%
X124460000Y-71120000D03*
%TD*%
D11*
%TO.P,R6,1*%
%TO.N,Net-(BAR6-K-Pad11)*%
X124460000Y-76200000D03*
D12*
%TO.P,R6,2*%
%TO.N,/BAR6*%
X124460000Y-86360000D03*
%TD*%
D13*
%TO.P,BAR4,1,A*%
%TO.N,/LED0*%
X97790000Y-68580000D03*
D14*
%TO.P,BAR4,2,A*%
%TO.N,/LED1*%
X100330000Y-68580000D03*
%TO.P,BAR4,3,A*%
%TO.N,/LED2*%
X102870000Y-68580000D03*
%TO.P,BAR4,4,A*%
%TO.N,/LED3*%
X105410000Y-68580000D03*
%TO.P,BAR4,5,A*%
%TO.N,/LED4*%
X107950000Y-68580000D03*
%TO.P,BAR4,6,A*%
%TO.N,/LED5*%
X110490000Y-68580000D03*
%TO.P,BAR4,7,A*%
%TO.N,/LED6*%
X113030000Y-68580000D03*
%TO.P,BAR4,8,A*%
%TO.N,/LED7*%
X115570000Y-68580000D03*
%TO.P,BAR4,9,A*%
%TO.N,/LED8*%
X118110000Y-68580000D03*
%TO.P,BAR4,10,A*%
%TO.N,/LED9*%
X120650000Y-68580000D03*
%TO.P,BAR4,11,K*%
%TO.N,Net-(BAR4-K-Pad11)*%
X120650000Y-60960000D03*
%TO.P,BAR4,12,K*%
X118110000Y-60960000D03*
%TO.P,BAR4,13,K*%
X115570000Y-60960000D03*
%TO.P,BAR4,14,K*%
X113030000Y-60960000D03*
%TO.P,BAR4,15,K*%
X110490000Y-60960000D03*
%TO.P,BAR4,16,K*%
X107950000Y-60960000D03*
%TO.P,BAR4,17,K*%
X105410000Y-60960000D03*
%TO.P,BAR4,18,K*%
X102870000Y-60960000D03*
%TO.P,BAR4,19,K*%
X100330000Y-60960000D03*
%TO.P,BAR4,20,K*%
X97790000Y-60960000D03*
%TD*%
D11*
%TO.P,R3,1*%
%TO.N,Net-(BAR3-K-Pad11)*%
X68580000Y-60960000D03*
D12*
%TO.P,R3,2*%
%TO.N,/BAR3*%
X68580000Y-71120000D03*
%TD*%
D13*
%TO.P,BAR2,1,A*%
%TO.N,/LED0*%
X97790000Y-54610000D03*
D14*
%TO.P,BAR2,2,A*%
%TO.N,/LED1*%
X100330000Y-54610000D03*
%TO.P,BAR2,3,A*%
%TO.N,/LED2*%
X102870000Y-54610000D03*
%TO.P,BAR2,4,A*%
%TO.N,/LED3*%
X105410000Y-54610000D03*
%TO.P,BAR2,5,A*%
%TO.N,/LED4*%
X107950000Y-54610000D03*
%TO.P,BAR2,6,A*%
%TO.N,/LED5*%
X110490000Y-54610000D03*
%TO.P,BAR2,7,A*%
%TO.N,/LED6*%
X113030000Y-54610000D03*
%TO.P,BAR2,8,A*%
%TO.N,/LED7*%
X115570000Y-54610000D03*
%TO.P,BAR2,9,A*%
%TO.N,/LED8*%
X118110000Y-54610000D03*
%TO.P,BAR2,10,A*%
%TO.N,/LED9*%
X120650000Y-54610000D03*
%TO.P,BAR2,11,K*%
%TO.N,Net-(BAR2-K-Pad11)*%
X120650000Y-46990000D03*
%TO.P,BAR2,12,K*%
X118110000Y-46990000D03*
%TO.P,BAR2,13,K*%
X115570000Y-46990000D03*
%TO.P,BAR2,14,K*%
X113030000Y-46990000D03*
%TO.P,BAR2,15,K*%
X110490000Y-46990000D03*
%TO.P,BAR2,16,K*%
X107950000Y-46990000D03*
%TO.P,BAR2,17,K*%
X105410000Y-46990000D03*
%TO.P,BAR2,18,K*%
X102870000Y-46990000D03*
%TO.P,BAR2,19,K*%
X100330000Y-46990000D03*
%TO.P,BAR2,20,K*%
X97790000Y-46990000D03*
%TD*%
D13*
%TO.P,BAR1,1,A*%
%TO.N,/LED0*%
X72390000Y-54610000D03*
D14*
%TO.P,BAR1,2,A*%
%TO.N,/LED1*%
X74930000Y-54610000D03*
%TO.P,BAR1,3,A*%
%TO.N,/LED2*%
X77470000Y-54610000D03*
%TO.P,BAR1,4,A*%
%TO.N,/LED3*%
X80010000Y-54610000D03*
%TO.P,BAR1,5,A*%
%TO.N,/LED4*%
X82550000Y-54610000D03*
%TO.P,BAR1,6,A*%
%TO.N,/LED5*%
X85090000Y-54610000D03*
%TO.P,BAR1,7,A*%
%TO.N,/LED6*%
X87630000Y-54610000D03*
%TO.P,BAR1,8,A*%
%TO.N,/LED7*%
X90170000Y-54610000D03*
%TO.P,BAR1,9,A*%
%TO.N,/LED8*%
X92710000Y-54610000D03*
%TO.P,BAR1,10,A*%
%TO.N,/LED9*%
X95250000Y-54610000D03*
%TO.P,BAR1,11,K*%
%TO.N,Net-(BAR1-K-Pad11)*%
X95250000Y-46990000D03*
%TO.P,BAR1,12,K*%
X92710000Y-46990000D03*
%TO.P,BAR1,13,K*%
X90170000Y-46990000D03*
%TO.P,BAR1,14,K*%
X87630000Y-46990000D03*
%TO.P,BAR1,15,K*%
X85090000Y-46990000D03*
%TO.P,BAR1,16,K*%
X82550000Y-46990000D03*
%TO.P,BAR1,17,K*%
X80010000Y-46990000D03*
%TO.P,BAR1,18,K*%
X77470000Y-46990000D03*
%TO.P,BAR1,19,K*%
X74930000Y-46990000D03*
%TO.P,BAR1,20,K*%
X72390000Y-46990000D03*
%TD*%
D15*
%TO.P,CN2,A*%
%TO.N,GND*%
X116228045Y-30181520D03*
D16*
%TO.P,CN2,B*%
%TO.N,+5V*%
X112268045Y-30181520D03*
D17*
%TO.P,CN2,C*%
%TO.N,/CASS_MOTOR*%
X108308045Y-30181520D03*
D15*
%TO.P,CN2,D*%
%TO.N,/CASS_RD*%
X104348045Y-30181520D03*
%TO.P,CN2,E*%
%TO.N,/CASS_WRT*%
X100388045Y-30181520D03*
%TO.P,CN2,F*%
%TO.N,/CASS_SENSE*%
X96428045Y-30181520D03*
%TD*%
D11*
%TO.P,R5,1*%
%TO.N,Net-(BAR5-K-Pad11)*%
X68580000Y-76200000D03*
D12*
%TO.P,R5,2*%
%TO.N,/BAR5*%
X68580000Y-86360000D03*
%TD*%
D13*
%TO.P,BAR6,1,A*%
%TO.N,/LED0*%
X97790000Y-82550000D03*
D14*
%TO.P,BAR6,2,A*%
%TO.N,/LED1*%
X100330000Y-82550000D03*
%TO.P,BAR6,3,A*%
%TO.N,/LED2*%
X102870000Y-82550000D03*
%TO.P,BAR6,4,A*%
%TO.N,/LED3*%
X105410000Y-82550000D03*
%TO.P,BAR6,5,A*%
%TO.N,/LED4*%
X107950000Y-82550000D03*
%TO.P,BAR6,6,A*%
%TO.N,/LED5*%
X110490000Y-82550000D03*
%TO.P,BAR6,7,A*%
%TO.N,/LED6*%
X113030000Y-82550000D03*
%TO.P,BAR6,8,A*%
%TO.N,/LED7*%
X115570000Y-82550000D03*
%TO.P,BAR6,9,A*%
%TO.N,/LED8*%
X118110000Y-82550000D03*
%TO.P,BAR6,10,A*%
%TO.N,/LED9*%
X120650000Y-82550000D03*
%TO.P,BAR6,11,K*%
%TO.N,Net-(BAR6-K-Pad11)*%
X120650000Y-74930000D03*
%TO.P,BAR6,12,K*%
X118110000Y-74930000D03*
%TO.P,BAR6,13,K*%
X115570000Y-74930000D03*
%TO.P,BAR6,14,K*%
X113030000Y-74930000D03*
%TO.P,BAR6,15,K*%
X110490000Y-74930000D03*
%TO.P,BAR6,16,K*%
X107950000Y-74930000D03*
%TO.P,BAR6,17,K*%
X105410000Y-74930000D03*
%TO.P,BAR6,18,K*%
X102870000Y-74930000D03*
%TO.P,BAR6,19,K*%
X100330000Y-74930000D03*
%TO.P,BAR6,20,K*%
X97790000Y-74930000D03*
%TD*%
D13*
%TO.P,BAR3,1,A*%
%TO.N,/LED0*%
X72390000Y-68580000D03*
D14*
%TO.P,BAR3,2,A*%
%TO.N,/LED1*%
X74930000Y-68580000D03*
%TO.P,BAR3,3,A*%
%TO.N,/LED2*%
X77470000Y-68580000D03*
%TO.P,BAR3,4,A*%
%TO.N,/LED3*%
X80010000Y-68580000D03*
%TO.P,BAR3,5,A*%
%TO.N,/LED4*%
X82550000Y-68580000D03*
%TO.P,BAR3,6,A*%
%TO.N,/LED5*%
X85090000Y-68580000D03*
%TO.P,BAR3,7,A*%
%TO.N,/LED6*%
X87630000Y-68580000D03*
%TO.P,BAR3,8,A*%
%TO.N,/LED7*%
X90170000Y-68580000D03*
%TO.P,BAR3,9,A*%
%TO.N,/LED8*%
X92710000Y-68580000D03*
%TO.P,BAR3,10,A*%
%TO.N,/LED9*%
X95250000Y-68580000D03*
%TO.P,BAR3,11,K*%
%TO.N,Net-(BAR3-K-Pad11)*%
X95250000Y-60960000D03*
%TO.P,BAR3,12,K*%
X92710000Y-60960000D03*
%TO.P,BAR3,13,K*%
X90170000Y-60960000D03*
%TO.P,BAR3,14,K*%
X87630000Y-60960000D03*
%TO.P,BAR3,15,K*%
X85090000Y-60960000D03*
%TO.P,BAR3,16,K*%
X82550000Y-60960000D03*
%TO.P,BAR3,17,K*%
X80010000Y-60960000D03*
%TO.P,BAR3,18,K*%
X77470000Y-60960000D03*
%TO.P,BAR3,19,K*%
X74930000Y-60960000D03*
%TO.P,BAR3,20,K*%
X72390000Y-60960000D03*
%TD*%
D11*
%TO.P,R2,1*%
%TO.N,Net-(BAR2-K-Pad11)*%
X124460000Y-46990000D03*
D12*
%TO.P,R2,2*%
%TO.N,/BAR2*%
X124460000Y-57150000D03*
%TD*%
D18*
%TO.P,A1,1,D1/TX*%
%TO.N,unconnected-(A1-D1{slash}TX-Pad1)*%
X114300000Y-90180000D03*
D12*
%TO.P,A1,2,D0/RX*%
%TO.N,unconnected-(A1-D0{slash}RX-Pad2)*%
X111760000Y-90180000D03*
%TO.P,A1,3,~{RESET}*%
%TO.N,unconnected-(A1-~{RESET}-Pad3)*%
X109220000Y-90180000D03*
%TO.P,A1,4,GND*%
%TO.N,GND*%
X106680000Y-90180000D03*
%TO.P,A1,5,D2*%
%TO.N,/BAR1*%
X104140000Y-90180000D03*
%TO.P,A1,6,D3*%
%TO.N,/BAR2*%
X101600000Y-90180000D03*
%TO.P,A1,7,D4*%
%TO.N,/BAR3*%
X99060000Y-90180000D03*
%TO.P,A1,8,D5*%
%TO.N,/BAR4*%
X96520000Y-90180000D03*
%TO.P,A1,9,D6*%
%TO.N,/BAR5*%
X93980000Y-90180000D03*
%TO.P,A1,10,D7*%
%TO.N,/BAR6*%
X91440000Y-90180000D03*
%TO.P,A1,11,D8*%
%TO.N,/CASS_RD*%
X88900000Y-90180000D03*
%TO.P,A1,12,D9*%
%TO.N,/LED6*%
X86360000Y-90180000D03*
%TO.P,A1,13,D10*%
%TO.N,/LED7*%
X83820000Y-90180000D03*
%TO.P,A1,14,D11*%
%TO.N,/LED8*%
X81280000Y-90180000D03*
%TO.P,A1,15,D12*%
%TO.N,/LED9*%
X78740000Y-90180000D03*
%TO.P,A1,16,D13*%
%TO.N,unconnected-(A1-D13-Pad16)*%
X78740000Y-105420000D03*
%TO.P,A1,17,3V3*%
%TO.N,unconnected-(A1-3V3-Pad17)*%
X81280000Y-105420000D03*
%TO.P,A1,18,AREF*%
%TO.N,unconnected-(A1-AREF-Pad18)*%
X83820000Y-105420000D03*
%TO.P,A1,19,A0*%
%TO.N,/LED0*%
X86360000Y-105420000D03*
%TO.P,A1,20,A1*%
%TO.N,/LED1*%
X88900000Y-105420000D03*
%TO.P,A1,21,A2*%
%TO.N,/LED2*%
X91440000Y-105420000D03*
%TO.P,A1,22,A3*%
%TO.N,/LED3*%
X93980000Y-105420000D03*
%TO.P,A1,23,A4*%
%TO.N,/LED4*%
X96520000Y-105420000D03*
%TO.P,A1,24,A5*%
%TO.N,/LED5*%
X99060000Y-105420000D03*
%TO.P,A1,25,A6*%
%TO.N,unconnected-(A1-A6-Pad25)*%
X101600000Y-105420000D03*
%TO.P,A1,26,A7*%
%TO.N,unconnected-(A1-A7-Pad26)*%
X104140000Y-105420000D03*
%TO.P,A1,27,+5V*%
%TO.N,unconnected-(A1-+5V-Pad27)*%
X106680000Y-105420000D03*
%TO.P,A1,28,~{RESET}*%
%TO.N,unconnected-(A1-~{RESET}-Pad28)*%
X109220000Y-105420000D03*
%TO.P,A1,29,GND*%
%TO.N,GND*%
X111760000Y-105420000D03*
%TO.P,A1,30,VIN*%
%TO.N,+5V*%
X114300000Y-105420000D03*
%TD*%
D11*
%TO.P,R1,1*%
%TO.N,Net-(BAR1-K-Pad11)*%
X68580000Y-46990000D03*
D12*
%TO.P,R1,2*%
%TO.N,/BAR1*%
X68580000Y-57150000D03*
%TD*%
D19*
%TO.P,CN3,1,Pin_1*%
%TO.N,GND*%
X76424000Y-35473000D03*
%TO.P,CN3,2,Pin_2*%
%TO.N,+5V*%
X79024000Y-35473000D03*
%TO.P,CN3,3,Pin_3*%
%TO.N,/CASS_MOTOR*%
X74324000Y-35473000D03*
%TO.P,CN3,4,Pin_4*%
%TO.N,/CASS_RD*%
X81124000Y-35473000D03*
%TO.P,CN3,5,Pin_5*%
%TO.N,/CASS_WRT*%
X74324000Y-37973000D03*
%TO.P,CN3,6,Pin_6*%
%TO.N,/CASS_SENSE*%
X78624000Y-37973000D03*
%TO.P,CN3,7,Pin_7*%
%TO.N,GND*%
X81124000Y-37973000D03*
%TD*%
D13*
%TO.P,BAR5,1,A*%
%TO.N,/LED0*%
X72390000Y-82550000D03*
D14*
%TO.P,BAR5,2,A*%
%TO.N,/LED1*%
X74930000Y-82550000D03*
%TO.P,BAR5,3,A*%
%TO.N,/LED2*%
X77470000Y-82550000D03*
%TO.P,BAR5,4,A*%
%TO.N,/LED3*%
X80010000Y-82550000D03*
%TO.P,BAR5,5,A*%
%TO.N,/LED4*%
X82550000Y-82550000D03*
%TO.P,BAR5,6,A*%
%TO.N,/LED5*%
X85090000Y-82550000D03*
%TO.P,BAR5,7,A*%
%TO.N,/LED6*%
X87630000Y-82550000D03*
%TO.P,BAR5,8,A*%
%TO.N,/LED7*%
X90170000Y-82550000D03*
%TO.P,BAR5,9,A*%
%TO.N,/LED8*%
X92710000Y-82550000D03*
%TO.P,BAR5,10,A*%
%TO.N,/LED9*%
X95250000Y-82550000D03*
%TO.P,BAR5,11,K*%
%TO.N,Net-(BAR5-K-Pad11)*%
X95250000Y-74930000D03*
%TO.P,BAR5,12,K*%
X92710000Y-74930000D03*
%TO.P,BAR5,13,K*%
X90170000Y-74930000D03*
%TO.P,BAR5,14,K*%
X87630000Y-74930000D03*
%TO.P,BAR5,15,K*%
X85090000Y-74930000D03*
%TO.P,BAR5,16,K*%
X82550000Y-74930000D03*
%TO.P,BAR5,17,K*%
X80010000Y-74930000D03*
%TO.P,BAR5,18,K*%
X77470000Y-74930000D03*
%TO.P,BAR5,19,K*%
X74930000Y-74930000D03*
%TO.P,BAR5,20,K*%
X72390000Y-74930000D03*
%TD*%
D20*
%TO.N,GND*%
X116234353Y-36830000D03*
X111183182Y-111405000D03*
%TO.N,+5V*%
X112221649Y-36830000D03*
X102176624Y-109855000D03*
X119380000Y-105410000D03*
%TO.N,/CASS_MOTOR*%
X98201227Y-109855000D03*
X108266980Y-36830000D03*
D21*
%TO.N,/CASS_WRT*%
X69596000Y-37973000D03*
D20*
X90252519Y-109855000D03*
X100332771Y-36830000D03*
D21*
%TO.N,/LED6*%
X114300000Y-71755000D03*
X88900000Y-71120000D03*
%TO.N,/LED7*%
X87630000Y-87630000D03*
X91440000Y-77470000D03*
%TO.N,/LED8*%
X91440000Y-86360000D03*
%TO.N,/LED9*%
X93802555Y-85865000D03*
%TO.N,/LED0*%
X99060000Y-80152000D03*
X73660000Y-80010000D03*
%TO.N,/LED1*%
X76200000Y-79375000D03*
X101600000Y-79517000D03*
%TO.N,/LED2*%
X78740000Y-78740000D03*
X104140000Y-78882000D03*
D20*
%TO.N,/CASS_SENSE*%
X96436137Y-36830000D03*
X86360000Y-109855000D03*
%TO.N,/CASS_RD*%
X94247556Y-109855000D03*
X104328893Y-36830000D03*
D21*
%TO.N,/LED3*%
X81915000Y-78105000D03*
X106680000Y-78247000D03*
%TO.N,/LED4*%
X109220000Y-72532000D03*
X83820000Y-72390000D03*
%TO.N,/LED5*%
X86360000Y-71755000D03*
X111760000Y-71897000D03*
%TD*%
D22*
%TO.N,GND*%
X78126800Y-40738000D02*
X76424000Y-39035200D01*
X127635000Y-45720000D02*
X122047000Y-40132000D01*
X114681000Y-36830000D02*
X108839000Y-42672000D01*
X127635000Y-100330000D02*
X120015000Y-107950000D01*
X108839000Y-42672000D02*
X83058000Y-42672000D01*
X108297726Y-111405000D02*
X111183182Y-111405000D01*
X117475000Y-107950000D02*
X114020000Y-111405000D01*
X118745000Y-40132000D02*
X116234353Y-37621353D01*
X120015000Y-107950000D02*
X117475000Y-107950000D01*
X116234353Y-36830000D02*
X114681000Y-36830000D01*
X122047000Y-40132000D02*
X118745000Y-40132000D01*
X81124000Y-40738000D02*
X78126800Y-40738000D01*
X116228045Y-36823692D02*
X116234353Y-36830000D01*
X116228045Y-30181520D02*
X116228045Y-36823692D01*
X127635000Y-45720000D02*
X127635000Y-100330000D01*
X116234353Y-37621353D02*
X116234353Y-36830000D01*
X106127556Y-113575170D02*
X108297726Y-111405000D01*
X114020000Y-111405000D02*
X111183182Y-111405000D01*
X111760000Y-105420000D02*
X111760000Y-110828182D01*
X111760000Y-110828182D02*
X111183182Y-111405000D01*
X81124000Y-40738000D02*
X81124000Y-37973000D01*
X76424000Y-39035200D02*
X76424000Y-35473000D01*
X83058000Y-42672000D02*
X81124000Y-40738000D01*
%TO.N,+5V*%
X114310000Y-105410000D02*
X114300000Y-105420000D01*
X79073390Y-35473000D02*
X80523390Y-34023000D01*
X83693000Y-35991390D02*
X83693000Y-38844944D01*
X102167556Y-113575170D02*
X102167556Y-109864068D01*
X119380000Y-105410000D02*
X114310000Y-105410000D01*
X83693000Y-38844944D02*
X85361056Y-40513000D01*
X80523390Y-34023000D02*
X81724610Y-34023000D01*
X81724610Y-34023000D02*
X83693000Y-35991390D01*
X102167556Y-109864068D02*
X102176624Y-109855000D01*
X79024000Y-35473000D02*
X79073390Y-35473000D01*
X112268045Y-36783604D02*
X112221649Y-36830000D01*
X85361056Y-40513000D02*
X108538649Y-40513000D01*
X112268045Y-30181520D02*
X112268045Y-36783604D01*
X108538649Y-40513000D02*
X112221649Y-36830000D01*
%TO.N,/CASS_MOTOR*%
X78841600Y-33324800D02*
X79635200Y-32531200D01*
X108308045Y-36788935D02*
X108266980Y-36830000D01*
X74324000Y-35473000D02*
X76472200Y-33324800D01*
X85344000Y-33528000D02*
X85344000Y-37211000D01*
X106234980Y-38862000D02*
X108266980Y-36830000D01*
X98207556Y-113575170D02*
X98207556Y-109861329D01*
X108308045Y-30181520D02*
X108308045Y-36788935D01*
X86995000Y-38862000D02*
X106234980Y-38862000D01*
X85344000Y-37211000D02*
X86995000Y-38862000D01*
X84347200Y-32531200D02*
X85344000Y-33528000D01*
X76472200Y-33324800D02*
X78841600Y-33324800D01*
X79635200Y-32531200D02*
X84347200Y-32531200D01*
X98207556Y-109861329D02*
X98201227Y-109855000D01*
D23*
%TO.N,/CASS_WRT*%
X69596000Y-37973000D02*
X74324000Y-37973000D01*
D22*
X90287556Y-113575170D02*
X90287556Y-109890037D01*
X100388045Y-36774726D02*
X100332771Y-36830000D01*
X90287556Y-109890037D02*
X90252519Y-109855000D01*
X100388045Y-30181520D02*
X100388045Y-36774726D01*
D23*
%TO.N,/LED6*%
X88900000Y-71120000D02*
X113665000Y-71120000D01*
X113665000Y-71120000D02*
X114300000Y-71755000D01*
D24*
%TO.N,/LED7*%
X83820000Y-88900000D02*
X85090000Y-87630000D01*
X83820000Y-90180000D02*
X83820000Y-88900000D01*
D23*
X111590000Y-77470000D02*
X115570000Y-81450000D01*
D24*
X85090000Y-87630000D02*
X87630000Y-87630000D01*
D23*
X115570000Y-81450000D02*
X115570000Y-82550000D01*
X91440000Y-77470000D02*
X111590000Y-77470000D01*
D24*
%TO.N,/LED8*%
X81280000Y-88900000D02*
X83820000Y-86360000D01*
X118110000Y-83820000D02*
X118110000Y-82550000D01*
X93345000Y-85090000D02*
X116840000Y-85090000D01*
X83820000Y-86360000D02*
X91440000Y-86360000D01*
X92710000Y-82550000D02*
X92710000Y-84455000D01*
X81280000Y-90180000D02*
X81280000Y-88900000D01*
X92710000Y-84455000D02*
X93345000Y-85090000D01*
X116840000Y-85090000D02*
X118110000Y-83820000D01*
%TO.N,/LED9*%
X78740000Y-90180000D02*
X83380000Y-85540000D01*
X93477555Y-85540000D02*
X93802555Y-85865000D01*
X120650000Y-82550000D02*
X120650000Y-83650000D01*
X83380000Y-85540000D02*
X93477555Y-85540000D01*
X118760000Y-85540000D02*
X94127555Y-85540000D01*
X94127555Y-85540000D02*
X93802555Y-85865000D01*
X120650000Y-83650000D02*
X118760000Y-85540000D01*
%TO.N,/LED0*%
X98915000Y-80150000D02*
X73800000Y-80150000D01*
X99060000Y-80152000D02*
X98915000Y-80150000D01*
X73800000Y-80150000D02*
X73660000Y-80010000D01*
D23*
%TO.N,/LED1*%
X79838844Y-79375000D02*
X79696844Y-79517000D01*
X76342000Y-79517000D02*
X76200000Y-79375000D01*
X101600000Y-79517000D02*
X101315000Y-79375000D01*
X101315000Y-79375000D02*
X79838844Y-79375000D01*
X79696844Y-79517000D02*
X76342000Y-79517000D01*
%TO.N,/LED2*%
X82236844Y-78882000D02*
X78846500Y-78882000D01*
X104140000Y-78882000D02*
X103855000Y-78740000D01*
X78846500Y-78882000D02*
X78740000Y-78740000D01*
X103855000Y-78740000D02*
X82378844Y-78740000D01*
X82378844Y-78740000D02*
X82236844Y-78882000D01*
D22*
%TO.N,/CASS_SENSE*%
X86327556Y-113575170D02*
X86327556Y-109887444D01*
X96428045Y-36821908D02*
X96436137Y-36830000D01*
X86327556Y-109887444D02*
X86360000Y-109855000D01*
X96428045Y-30181520D02*
X96428045Y-36821908D01*
%TO.N,/CASS_RD*%
X104348045Y-36810848D02*
X104328893Y-36830000D01*
X104348045Y-30181520D02*
X104348045Y-36810848D01*
X94247556Y-113575170D02*
X94247556Y-109855000D01*
D23*
%TO.N,/LED3*%
X91761844Y-78247000D02*
X91903844Y-78105000D01*
X81915000Y-78105000D02*
X82057000Y-78247000D01*
X106538000Y-78105000D02*
X106680000Y-78247000D01*
X91903844Y-78105000D02*
X106538000Y-78105000D01*
X82057000Y-78247000D02*
X91761844Y-78247000D01*
%TO.N,/LED4*%
X83820000Y-72390000D02*
X83962000Y-72532000D01*
X83962000Y-72532000D02*
X109220000Y-72532000D01*
%TO.N,/LED5*%
X89363844Y-71755000D02*
X111618000Y-71755000D01*
X86360000Y-71755000D02*
X86502000Y-71897000D01*
X89221844Y-71897000D02*
X89363844Y-71755000D01*
X111618000Y-71755000D02*
X111760000Y-71897000D01*
X86502000Y-71897000D02*
X89221844Y-71897000D01*
%TO.N,Net-(BAR1-K-Pad11)*%
X95250000Y-46990000D02*
X68580000Y-46990000D01*
%TO.N,Net-(BAR2-K-Pad11)*%
X97790000Y-46990000D02*
X124460000Y-46990000D01*
%TO.N,/BAR1*%
X68580000Y-57150000D02*
X65557064Y-60172936D01*
X72694129Y-92710000D02*
X65557064Y-85572936D01*
X101610000Y-92710000D02*
X72694129Y-92710000D01*
X65557064Y-60172936D02*
X65557064Y-85572936D01*
X104140000Y-90180000D02*
X101610000Y-92710000D01*
%TO.N,/BAR2*%
X101600000Y-90180000D02*
X103839000Y-87941000D01*
X126041000Y-58731000D02*
X124460000Y-57150000D01*
X126041000Y-87014872D02*
X126041000Y-58731000D01*
X125114871Y-87941000D02*
X126041000Y-87014872D01*
X103839000Y-87941000D02*
X125114871Y-87941000D01*
%TO.N,/BAR3*%
X96984000Y-92256000D02*
X72882181Y-92256000D01*
X66228052Y-73471948D02*
X68580000Y-71120000D01*
X72882181Y-92256000D02*
X66228052Y-85601871D01*
X99060000Y-90180000D02*
X96984000Y-92256000D01*
X66228052Y-85601871D02*
X66228052Y-73471948D01*
%TO.N,/BAR4*%
X125587000Y-86826819D02*
X125587000Y-72247000D01*
X125587000Y-72247000D02*
X124460000Y-71120000D01*
X96520000Y-90180000D02*
X99213000Y-87487000D01*
X124926819Y-87487000D02*
X125587000Y-86826819D01*
X99213000Y-87487000D02*
X124926819Y-87487000D01*
%TO.N,/BAR5*%
X92720000Y-91440000D02*
X73660000Y-91440000D01*
X73660000Y-91440000D02*
X68580000Y-86360000D01*
X93980000Y-90180000D02*
X92720000Y-91440000D01*
%TO.N,/BAR6*%
X95260000Y-86360000D02*
X124460000Y-86360000D01*
X91440000Y-90180000D02*
X95260000Y-86360000D01*
%TO.N,Net-(BAR3-K-Pad11)*%
X95357500Y-60960000D02*
X68580000Y-60960000D01*
%TO.N,Net-(BAR4-K-Pad11)*%
X97790000Y-60960000D02*
X124460000Y-60960000D01*
%TO.N,Net-(BAR5-K-Pad11)*%
X69850000Y-74930000D02*
X68580000Y-76200000D01*
X95250000Y-74930000D02*
X69850000Y-74930000D01*
%TO.N,Net-(BAR6-K-Pad11)*%
X97790000Y-74930000D02*
X123190000Y-74930000D01*
X123190000Y-74930000D02*
X124460000Y-76200000D01*
%TD*%
M02*
