M48
; DRILL file {KiCad 7.0.10-7.0.10~ubuntu20.04.1} date Sun 04 Feb 2024 15:22:40 CET
; FORMAT={-:-/ absolute / inch / decimal}
; #@! TF.CreationDate,2024-02-04T15:22:40+01:00
; #@! TF.GenerationSoftware,Kicad,Pcbnew,7.0.10-7.0.10~ubuntu20.04.1
; #@! TF.FileFunction,Plated,1,2,PTH
FMAT,2
INCH
; #@! TA.AperFunction,Plated,PTH,ViaDrill
T1C0.0157
; #@! TA.AperFunction,Plated,PTH,ComponentDrill
T2C0.0315
; #@! TA.AperFunction,Plated,PTH,ComponentDrill
T3C0.0360
; #@! TA.AperFunction,Plated,PTH,ViaDrill
T4C0.0394
; #@! TA.AperFunction,Plated,PTH,ComponentDrill
T5C0.0394
%
G90
G05
T1
X2.74Y-1.495
X2.9Y-3.15
X3.0Y-3.125
X3.1Y-3.1
X3.225Y-3.075
X3.3Y-2.85
X3.4Y-2.825
X3.45Y-3.45
X3.5Y-2.8
X3.6Y-3.05
X3.6Y-3.4
X3.693Y-3.3805
X3.9Y-3.1556
X4.0Y-3.1306
X4.1Y-3.1056
X4.2Y-3.0806
X4.3Y-2.8556
X4.4Y-2.8306
X4.5Y-2.825
T2
X2.7Y-1.85
X2.7Y-2.25
X2.7Y-2.4
X2.7Y-2.8
X2.7Y-3.0
X2.7Y-3.4
X4.9Y-1.85
X4.9Y-2.25
X4.9Y-2.4
X4.9Y-2.8
X4.9Y-3.0
X4.9Y-3.4
T3
X2.85Y-1.85
X2.85Y-2.15
X2.85Y-2.4
X2.85Y-2.7
X2.85Y-2.95
X2.85Y-3.25
X2.95Y-1.85
X2.95Y-2.15
X2.95Y-2.4
X2.95Y-2.7
X2.95Y-2.95
X2.95Y-3.25
X3.05Y-1.85
X3.05Y-2.15
X3.05Y-2.4
X3.05Y-2.7
X3.05Y-2.95
X3.05Y-3.25
X3.15Y-1.85
X3.15Y-2.15
X3.15Y-2.4
X3.15Y-2.7
X3.15Y-2.95
X3.15Y-3.25
X3.25Y-1.85
X3.25Y-2.15
X3.25Y-2.4
X3.25Y-2.7
X3.25Y-2.95
X3.25Y-3.25
X3.35Y-1.85
X3.35Y-2.15
X3.35Y-2.4
X3.35Y-2.7
X3.35Y-2.95
X3.35Y-3.25
X3.45Y-1.85
X3.45Y-2.15
X3.45Y-2.4
X3.45Y-2.7
X3.45Y-2.95
X3.45Y-3.25
X3.55Y-1.85
X3.55Y-2.15
X3.55Y-2.4
X3.55Y-2.7
X3.55Y-2.95
X3.55Y-3.25
X3.65Y-1.85
X3.65Y-2.15
X3.65Y-2.4
X3.65Y-2.7
X3.65Y-2.95
X3.65Y-3.25
X3.75Y-1.85
X3.75Y-2.15
X3.75Y-2.4
X3.75Y-2.7
X3.75Y-2.95
X3.75Y-3.25
X3.85Y-1.85
X3.85Y-2.15
X3.85Y-2.4
X3.85Y-2.7
X3.85Y-2.95
X3.85Y-3.25
X3.95Y-1.85
X3.95Y-2.15
X3.95Y-2.4
X3.95Y-2.7
X3.95Y-2.95
X3.95Y-3.25
X4.05Y-1.85
X4.05Y-2.15
X4.05Y-2.4
X4.05Y-2.7
X4.05Y-2.95
X4.05Y-3.25
X4.15Y-1.85
X4.15Y-2.15
X4.15Y-2.4
X4.15Y-2.7
X4.15Y-2.95
X4.15Y-3.25
X4.25Y-1.85
X4.25Y-2.15
X4.25Y-2.4
X4.25Y-2.7
X4.25Y-2.95
X4.25Y-3.25
X4.35Y-1.85
X4.35Y-2.15
X4.35Y-2.4
X4.35Y-2.7
X4.35Y-2.95
X4.35Y-3.25
X4.45Y-1.85
X4.45Y-2.15
X4.45Y-2.4
X4.45Y-2.7
X4.45Y-2.95
X4.45Y-3.25
X4.55Y-1.85
X4.55Y-2.15
X4.55Y-2.4
X4.55Y-2.7
X4.55Y-2.95
X4.55Y-3.25
X4.65Y-1.85
X4.65Y-2.15
X4.65Y-2.4
X4.65Y-2.7
X4.65Y-2.95
X4.65Y-3.25
X4.75Y-1.85
X4.75Y-2.15
X4.75Y-2.4
X4.75Y-2.7
X4.75Y-2.95
X4.75Y-3.25
T4
X3.4Y-4.325
X3.5532Y-4.325
X3.7105Y-4.325
X3.7967Y-1.45
X3.8662Y-4.325
X3.9501Y-1.45
X4.0227Y-4.325
X4.1074Y-1.45
X4.2625Y-1.45
X4.3773Y-4.386
X4.4182Y-1.45
X4.5762Y-1.45
X4.7Y-4.15
T5
X2.9261Y-1.3966
X2.9261Y-1.495
X3.0088Y-1.3966
X3.0954Y-1.495
X3.1Y-3.5504
X3.1Y-4.1504
X3.1112Y-1.3966
X3.1939Y-1.3966
X3.1939Y-1.495
X3.2Y-3.5504
X3.2Y-4.1504
X3.3Y-3.5504
X3.3Y-4.1504
X3.4Y-3.5504
X3.4Y-4.1504
X3.5Y-3.5504
X3.5Y-4.1504
X3.6Y-3.5504
X3.6Y-4.1504
X3.7Y-3.5504
X3.7Y-4.1504
X3.8Y-3.5504
X3.8Y-4.1504
X3.9Y-3.5504
X3.9Y-4.1504
X4.0Y-3.5504
X4.0Y-4.1504
X4.1Y-3.5504
X4.1Y-4.1504
X4.2Y-3.5504
X4.2Y-4.1504
X4.3Y-3.5504
X4.3Y-4.1504
X4.4Y-3.5504
X4.4Y-4.1504
X4.5Y-3.5504
X4.5Y-4.1504
M30
